<svg width="88" height="88" viewBox="0 0 88 88" fill="none" xmlns="http://www.w3.org/2000/svg">
<path fill-rule="evenodd" clip-rule="evenodd" d="M43.7643 58.603C46.562 55.8488 49.3125 55.8935 52.8206 55.4489C56.5409 54.9795 58.3713 54.0718 60.013 52.342C61.6546 50.6109 62.766 46.6136 60.9902 42.8833C59.2132 39.1567 56.2839 37.7349 56.2839 37.7349C56.2839 37.7349 56.5496 38.6215 56.5496 39.867C56.5496 41.1088 56.5943 44.0382 56.4615 46.5702C56.3273 49.1009 56.1957 53.051 50.9554 54.1624C45.7176 55.2701 44.5627 56.6472 44.5627 56.6472V54.5623C44.5627 54.5623 45.4518 54.0283 46.783 53.5403C48.1142 53.051 50.9554 51.7186 51.888 48.9234C52.8206 46.1256 52.2431 41.952 52.2431 41.1088C52.2431 40.2644 52.1115 38.0019 54.641 32.8969C54.641 32.8969 49.8924 33.827 48.4247 39.2002C48.1142 40.8456 47.9813 44.3052 47.9813 46.0809C47.9813 47.8567 48.5141 51.0989 45.7176 52.3867C45.7176 52.3867 45.273 51.9868 44.5627 51.9868V39.8199H46.1174C46.1174 39.8199 46.3385 38.6687 44.6087 38.3558V31.5633C44.6087 31.5633 44.4298 29.7875 45.0507 28.9891C45.6729 28.1881 46.6042 27.7013 47.7603 27.5685C48.9127 27.4356 50.5121 27.6119 50.5121 29.3889C50.5121 31.1659 48.4694 31.0318 48.3365 30.8977C48.2036 30.7648 47.8485 29.9676 46.6042 30.6319C45.8504 30.9883 46.516 32.2301 47.4052 32.5852C48.2918 32.9392 50.1122 33.6954 52.1997 31.9184C54.2859 30.1451 53.4415 27.4803 51.7986 26.2807C50.1569 25.0824 46.6502 24.5944 43.7643 27.1698H43.7196C40.8337 24.5944 37.3244 25.0824 35.684 26.2807C34.0424 27.4803 33.1979 30.1451 35.2829 31.9184C37.3716 33.6954 39.1895 32.9392 40.0774 32.5852C40.9665 32.2301 41.6334 30.9883 40.8784 30.6319C39.6341 29.9676 39.2802 30.7648 39.1473 30.8977C39.0132 31.0318 36.9705 31.1659 36.9705 29.3889C36.9705 27.6119 38.5699 27.4356 39.7223 27.5685C40.8784 27.7013 41.8109 28.1881 42.4306 28.9891C43.054 29.7875 42.8751 31.5633 42.8751 31.5633V38.3558C41.1453 38.6687 41.3664 39.8199 41.3664 39.8199H42.9198V51.9868C42.212 51.9868 41.7662 52.3867 41.7662 52.3867C38.9685 51.0989 39.5025 47.8567 39.5025 46.0809C39.5025 44.3052 39.3684 40.8456 39.0591 39.2002C37.5914 33.827 32.8428 32.8969 32.8428 32.8969C35.3723 38.0019 35.2407 40.2644 35.2407 41.1088C35.2407 41.952 34.6632 46.1256 35.5958 48.9234C36.5284 51.7186 39.3684 53.051 40.7008 53.5403C42.0307 54.0283 42.9198 54.5623 42.9198 54.5623V56.6472C42.9198 56.6472 41.7662 55.2701 36.5284 54.1624C31.2881 53.051 31.1552 49.1009 31.0211 46.5702C30.8907 44.0382 30.9329 41.1088 30.9329 39.867C30.9329 38.6215 31.1999 37.7349 31.1999 37.7349C31.1999 37.7349 28.2681 39.1567 26.4936 42.8833C24.7178 46.6136 25.8267 50.6109 27.4709 52.342C29.1137 54.0718 30.9429 54.9795 34.6632 55.4489C38.17 55.8935 40.9218 55.8488 43.7196 58.603H43.7643Z" fill="#1E8274"/>
<path fill-rule="evenodd" clip-rule="evenodd" d="M29.4849 64.1742H33.9901L31.6791 62.4395L29.4849 64.1742ZM28.7746 64.4226L31.5997 62.1849L31.6754 62.1278L34.7327 64.4226H28.7746Z" fill="#1E8274"/>
<path fill-rule="evenodd" clip-rule="evenodd" d="M30.2063 63.9267H33.1419L31.7002 62.8091L30.2063 63.9267ZM29.7605 64.077L31.6567 62.6576L31.7027 62.6229L33.5753 64.077H29.7605Z" fill="#1E8274"/>
<path fill-rule="evenodd" clip-rule="evenodd" d="M40.6231 64.064H46.9016L43.7338 61.1607L40.6231 64.064ZM39.8706 64.3596L43.632 60.849L43.7325 60.7572L47.6628 64.3596H39.8706Z" fill="#1E8274"/>
<path fill-rule="evenodd" clip-rule="evenodd" d="M42.3001 63.5075H45.2406L43.8051 62.082L42.3001 63.5075ZM41.555 63.8031L43.7045 61.7666L43.8088 61.6685L45.9596 63.8031H41.555Z" fill="#1E8274"/>
<path fill-rule="evenodd" clip-rule="evenodd" d="M40.7399 64.6681H46.7241V64.5824H40.7399V64.6681ZM40.5921 64.8183V64.4346H46.8731V64.8183H40.5921Z" fill="#1E8274"/>
<path fill-rule="evenodd" clip-rule="evenodd" d="M40.3822 65.0382C40.3822 65.068 40.4033 65.0904 40.4307 65.0904H46.96C46.9873 65.0904 47.0096 65.068 47.0096 65.0382C47.0096 65.0121 46.9873 64.991 46.96 64.991H40.4307C40.4033 64.991 40.3822 65.0121 40.3822 65.0382ZM40.4307 65.2394C40.3201 65.2394 40.232 65.15 40.232 65.0382C40.232 64.9302 40.3201 64.8433 40.4307 64.8433H46.96C47.0692 64.8433 47.1574 64.9302 47.1574 65.0382C47.1574 65.15 47.0692 65.2394 46.96 65.2394H40.4307Z" fill="#1E8274"/>
<path fill-rule="evenodd" clip-rule="evenodd" d="M41.0188 65.7701V69.6022H41.3591V65.7701H41.4956V65.4124H40.8648V65.7701H40.9455H41.0188ZM40.8698 69.7525V65.9178H40.717V65.2647H41.6434V65.9178H41.5093V69.7525H40.8698Z" fill="#1E8274"/>
<path fill-rule="evenodd" clip-rule="evenodd" d="M42.7263 65.7701V69.6022H43.0653V65.7701H43.2019V65.4124H42.5723V65.7701H42.6518H42.7263ZM42.5773 69.7525V65.9178H42.4233V65.2647H43.3497V65.9178H43.2131V69.7525H42.5773Z" fill="#1E8274"/>
<path fill-rule="evenodd" clip-rule="evenodd" d="M44.4192 65.7701V69.6022H44.7569V65.7701H44.8948V65.4124H44.2639V65.7701H44.3422H44.4192ZM44.2689 69.7525V65.9178H44.1162V65.2647H45.0425V65.9178H44.9084V69.7525H44.2689Z" fill="#1E8274"/>
<path fill-rule="evenodd" clip-rule="evenodd" d="M46.0999 65.7701V69.6022H46.4402V65.7701H46.5768V65.4124H45.9459V65.7701H46.0242H46.0999ZM45.9521 69.7525V65.9178H45.7982V65.2647H46.7245V65.9178H46.5879V69.7525H45.9521Z" fill="#1E8274"/>
<path fill-rule="evenodd" clip-rule="evenodd" d="M40.1215 69.8524H47.453V69.8152H40.1215V69.8524ZM40.0234 69.9493V69.7146H47.5511V69.9493H40.0234Z" fill="#1E8274"/>
<path fill-rule="evenodd" clip-rule="evenodd" d="M39.9117 70.1603H47.6144V70.0995H39.9117V70.1603ZM39.7639 70.3106V69.9492H47.7634V70.3106H39.7639Z" fill="#1E8274"/>
<path fill-rule="evenodd" clip-rule="evenodd" d="M39.5405 70.7181H48.0244V70.5554H39.5405V70.7181ZM39.3431 70.913V70.3567H48.2218V70.913H39.3431Z" fill="#1E8274"/>
<path fill-rule="evenodd" clip-rule="evenodd" d="M29.4501 69.9864V64.3214H29.6475V69.7878H33.6796V64.2979H33.8745V69.9864H29.4501Z" fill="#1E8274"/>
<path fill-rule="evenodd" clip-rule="evenodd" d="M33.7223 69.8083L34.1855 69.4904L34.1868 64.2985H34.3842V69.5947L33.8341 69.9684L33.7223 69.8083Z" fill="#1E8274"/>
<path fill-rule="evenodd" clip-rule="evenodd" d="M29.5495 66.8591V66.6604H33.7616L34.2434 66.35H40.9577V66.5487H34.303L33.8188 66.8591H29.5495Z" fill="#1E8274"/>
<path fill-rule="evenodd" clip-rule="evenodd" d="M30.4382 66.1172H31.2913V64.9288H30.4382V66.1172ZM30.242 66.3147V64.7314H31.49V66.3147H30.242Z" fill="#1E8274"/>
<path fill-rule="evenodd" clip-rule="evenodd" d="M32.1105 66.1172H32.9636V64.9288H32.1105V66.1172ZM31.9118 66.3147V64.7314H33.1623V66.3147H31.9118Z" fill="#1E8274"/>
<path fill-rule="evenodd" clip-rule="evenodd" d="M53.5633 64.1745H58.0673L55.873 62.4398L53.5633 64.1745ZM52.822 64.4229L55.801 62.1827L55.8768 62.1281L58.7788 64.4229H52.822Z" fill="#1E8274"/>
<path fill-rule="evenodd" clip-rule="evenodd" d="M54.4098 63.9271H57.3466L55.8515 62.8095L54.4098 63.9271ZM53.9777 64.0761L55.8068 62.658L55.8503 62.6219L57.7924 64.0761H53.9777Z" fill="#1E8274"/>
<path fill-rule="evenodd" clip-rule="evenodd" d="M53.6733 69.9864V64.2979H53.872V69.7878H57.9028V64.3214H58.099V69.9864H53.6733Z" fill="#1E8274"/>
<path fill-rule="evenodd" clip-rule="evenodd" d="M53.1676 69.5947V64.2985H53.365V69.4904L53.8282 69.807L53.7165 69.9684L53.1676 69.5947Z" fill="#1E8274"/>
<path fill-rule="evenodd" clip-rule="evenodd" d="M53.7321 66.8591L53.2491 66.5487H46.5658V66.35H53.3087L53.7905 66.6604H58.0014V66.8591H53.7321Z" fill="#1E8274"/>
<path fill-rule="evenodd" clip-rule="evenodd" d="M56.2585 66.1172H57.1116V64.9288H56.2585V66.1172ZM57.3103 66.3147H56.0598V64.7314H57.3103V66.3147Z" fill="#1E8274"/>
<path fill-rule="evenodd" clip-rule="evenodd" d="M54.5899 66.1172H55.443V64.9288H54.5899V66.1172ZM55.6404 66.3147H54.3912V64.7314H55.6404V66.3147Z" fill="#1E8274"/>
<path fill-rule="evenodd" clip-rule="evenodd" d="M31.9239 62.6276H41.9973V62.3333H31.9239V62.6276Z" fill="#1E8274"/>
<path fill-rule="evenodd" clip-rule="evenodd" d="M45.5265 62.6276H55.6011V62.3333H45.5265V62.6276Z" fill="#1E8274"/>
<path fill-rule="evenodd" clip-rule="evenodd" d="M34.1504 64.2794H40.2997V63.9801H34.1504V64.2794Z" fill="#1E8274"/>
<path fill-rule="evenodd" clip-rule="evenodd" d="M47.2243 64.2794H53.3748V63.9801H47.2243V64.2794Z" fill="#1E8274"/>
<path fill-rule="evenodd" clip-rule="evenodd" d="M34.2317 69.6861H40.9758V69.3881H34.2317V69.6861Z" fill="#1E8274"/>
<path fill-rule="evenodd" clip-rule="evenodd" d="M46.5173 69.6861H53.2614V69.3881H46.5173V69.6861Z" fill="#1E8274"/>
<path fill-rule="evenodd" clip-rule="evenodd" d="M35.1373 65.7955H35.9631V64.8058H35.1373V65.7955ZM34.9411 65.9929V64.6071H36.1617V65.9929H34.9411Z" fill="#1E8274"/>
<path fill-rule="evenodd" clip-rule="evenodd" d="M36.92 65.7955H37.7445V64.8058H36.92V65.7955ZM36.7213 65.9929V64.6071H37.942V65.9929H36.7213Z" fill="#1E8274"/>
<path fill-rule="evenodd" clip-rule="evenodd" d="M38.7656 65.7955H39.5902V64.8058H38.7656V65.7955ZM38.5682 65.9929V64.6071H39.7889V65.9929H38.5682Z" fill="#1E8274"/>
<path fill-rule="evenodd" clip-rule="evenodd" d="M47.8328 65.7955H48.6586V64.8058H47.8328V65.7955ZM47.6354 65.9929V64.6071H48.856V65.9929H47.6354Z" fill="#1E8274"/>
<path fill-rule="evenodd" clip-rule="evenodd" d="M49.6155 65.7955H50.44V64.8058H49.6155V65.7955ZM49.4168 65.9929V64.6071H50.6375V65.9929H49.4168Z" fill="#1E8274"/>
<path fill-rule="evenodd" clip-rule="evenodd" d="M51.4624 65.7955H52.2869V64.8058H51.4624V65.7955ZM51.2649 65.9929V64.6071H52.4843V65.9929H51.2649Z" fill="#1E8274"/>
<path fill-rule="evenodd" clip-rule="evenodd" d="M19.8655 61.7569C20.063 62.0487 20.3387 62.451 20.6628 62.8919C21.2675 63.7201 22.0337 64.6862 22.7005 65.3084C22.7899 65.2314 22.9203 65.1271 23.0768 65.0228C23.3848 64.8216 23.7846 64.6093 24.2118 64.6055C24.3422 64.6055 24.4763 64.6291 24.6067 64.6825L24.7842 64.4751C24.7681 64.3696 24.7457 64.1858 24.7457 63.9598C24.7457 63.6419 24.7892 63.2309 24.9655 62.8149C25.117 62.4548 25.3679 62.0934 25.7665 61.7979L23.1625 58.8139C23.1438 58.8275 23.1265 58.8412 23.1066 58.8586C22.9861 58.9567 22.8222 59.1082 22.6595 59.3168C22.3305 59.734 21.9902 60.3723 21.9567 61.2763L21.9455 61.5445L21.6922 61.4564C21.6922 61.4564 21.686 61.4539 21.6698 61.4477C21.6549 61.4415 21.6289 61.434 21.5991 61.4266C21.5382 61.4067 21.4488 61.3831 21.3408 61.3583C21.121 61.3061 20.8242 61.2564 20.5224 61.2564C20.2157 61.2564 19.9053 61.3074 19.6582 61.4477C19.7103 61.5272 19.7799 61.6327 19.8655 61.7569ZM22.5677 65.7206C21.8288 65.0675 20.998 64.0169 20.3436 63.1253C19.6917 62.235 19.2198 61.5023 19.2186 61.5011L19.1217 61.3496L19.2608 61.2378C19.6346 60.9423 20.099 60.864 20.5224 60.864C20.9471 60.864 21.3371 60.9448 21.5767 61.0093C21.6649 60.1401 22.0113 59.4981 22.3503 59.0709C22.7179 58.6052 23.0755 58.3879 23.0917 58.3792L23.2308 58.2948L26.3638 61.8848L26.1663 62.0052C25.728 62.2759 25.4796 62.6187 25.3294 62.9689C25.1828 63.3215 25.1419 63.6767 25.1419 63.9598C25.1419 64.2392 25.1816 64.4404 25.1903 64.4813C25.1903 64.4876 25.1915 64.4888 25.1915 64.4888L25.2151 64.5881L24.8004 65.06L24.6886 65.1879L24.5446 65.096C24.444 65.0302 24.3347 65.0029 24.2118 65.0017C23.9597 64.9992 23.6579 65.1296 23.4034 65.2848C23.1476 65.4412 22.9427 65.6188 22.8669 65.6871C22.8458 65.7045 22.8346 65.7157 22.8346 65.7157L22.7055 65.8386L22.5677 65.7206Z" fill="#1E8274"/>
<path fill-rule="evenodd" clip-rule="evenodd" d="M16.4457 55.0087C16.5947 55.4098 16.8046 55.9611 17.0505 56.551C17.5124 57.6673 18.1097 58.9377 18.6263 59.6132C18.8374 59.5275 19.2521 59.3897 19.7675 59.3897C19.9786 59.3897 20.2071 59.4133 20.4455 59.4729C20.4703 59.2643 20.5312 58.9526 20.6665 58.6123C20.8789 58.0796 21.3023 57.4674 22.0859 57.1744C21.9269 56.8937 21.6289 56.366 21.3073 55.7724C20.828 54.892 20.299 53.8812 20.0692 53.2925C20.0568 53.2578 20.0432 53.2243 20.0332 53.1907C20.032 53.1932 20.032 53.1932 20.0295 53.1945C19.8867 53.3025 19.6955 53.4614 19.4993 53.6527C19.1044 54.0389 18.6971 54.5616 18.6151 55.0695L18.558 55.4085L18.2947 55.19C18.2947 55.19 18.2935 55.19 18.2885 55.1863C18.2823 55.1801 18.2786 55.1739 18.2674 55.1676C18.2451 55.1527 18.2128 55.1291 18.1718 55.1006C18.0849 55.0435 17.957 54.9677 17.7968 54.8907C17.4727 54.7367 17.0107 54.5852 16.4643 54.5852C16.4072 54.5852 16.3501 54.5877 16.2917 54.5915C16.3315 54.6982 16.3824 54.841 16.4457 55.0087ZM18.4177 59.9857C17.8166 59.2643 17.1871 57.9033 16.6854 56.705C16.1887 55.5079 15.8348 54.4859 15.8348 54.4834L15.7565 54.2549L15.9937 54.2214C16.1564 54.2003 16.3141 54.1904 16.4643 54.1904C17.3137 54.1904 17.9669 54.507 18.2997 54.7132C18.4785 54.1817 18.866 53.721 19.2211 53.372C19.6433 52.9585 20.0382 52.699 20.0419 52.6953L20.335 52.5015L20.3499 52.8517C20.3486 52.8679 20.3648 52.9449 20.3995 53.043C20.4331 53.1435 20.4852 53.2652 20.5486 53.4093C20.6727 53.6936 20.8491 54.0538 21.0428 54.4325C21.4327 55.19 21.8971 56.0319 22.2063 56.5833C22.4125 56.9496 22.5491 57.1868 22.5491 57.1905L22.677 57.4115L22.4286 57.4798C21.6848 57.6798 21.2974 58.174 21.0763 58.6645C20.8553 59.1513 20.823 59.6281 20.8193 59.72V59.7386L20.8168 60.018L20.5535 59.9212C20.2779 59.8206 20.0121 59.7833 19.7675 59.7833C19.1665 59.7833 18.707 60.0093 18.666 60.0317L18.5207 60.1099L18.4177 59.9857Z" fill="#1E8274"/>
<path fill-rule="evenodd" clip-rule="evenodd" d="M17.6798 52.8678C17.7568 52.7188 17.8748 52.5101 18.0375 52.2854C18.328 51.8905 18.7614 51.4435 19.3649 51.2038C19.2842 50.9207 19.1215 50.3308 18.9564 49.6416C18.7465 48.7625 18.5342 47.7305 18.4994 46.9557C18.3566 47.0153 18.1654 47.0997 17.9567 47.2152C17.5221 47.4573 17.0192 47.8348 16.7386 48.3551L16.5672 48.6743L16.3933 48.3564L16.3884 48.3502C16.3859 48.3452 16.3809 48.3378 16.3747 48.3253C16.3598 48.3018 16.335 48.2682 16.3052 48.2248C16.2406 48.1403 16.1425 48.0186 16.0047 47.887C15.7712 47.6647 15.4285 47.4089 14.9516 47.2289C14.9566 47.3058 14.9628 47.3928 14.9703 47.4971C14.9976 47.8473 15.041 48.339 15.1093 48.904C15.2335 49.9856 15.4421 51.3354 15.7687 52.4729C15.8581 52.463 15.9798 52.4567 16.1201 52.4567C16.5523 52.4592 17.1769 52.5176 17.6798 52.8678ZM17.6152 53.3248C17.2266 52.9435 16.5709 52.8479 16.1201 52.8516C15.9115 52.8516 15.7501 52.8703 15.688 52.8777C15.6669 52.8802 15.657 52.8814 15.657 52.8814L15.4856 52.9112L15.4359 52.7436C14.7082 50.3333 14.5394 46.9681 14.5369 46.9594L14.5245 46.685L14.7902 46.7595C15.7377 47.0289 16.2952 47.5778 16.5572 47.9044C16.895 47.4263 17.3632 47.0935 17.7643 46.8687C18.2361 46.6055 18.6285 46.4912 18.6372 46.4875L18.8955 46.413L18.8906 46.6812C18.8906 46.6999 18.8893 46.716 18.8893 46.7371C18.8893 47.2723 19.016 48.0546 19.1749 48.8109C19.3351 49.5671 19.5276 50.3023 19.6555 50.7692C19.7399 51.0796 19.7971 51.2684 19.7971 51.2721L19.8517 51.4596L19.6654 51.5142C19.1166 51.6831 18.7006 52.0706 18.4125 52.4456C18.1256 52.8169 17.9692 53.1695 17.9418 53.2403C17.9381 53.2515 17.9369 53.254 17.9369 53.254L17.8288 53.5309L17.6152 53.3248Z" fill="#1E8274"/>
<path fill-rule="evenodd" clip-rule="evenodd" d="M15.5282 45.303C15.8647 45.4545 16.2397 45.6631 16.4881 45.9748C16.5949 45.8556 16.7451 45.7004 16.9351 45.5476C17.2927 45.2533 17.7845 44.9466 18.3644 44.9019C18.3545 44.6424 18.3408 44.1618 18.3408 43.5968C18.3408 43.0194 18.3545 42.3538 18.4017 41.7441C18.4414 41.2859 18.4948 40.8587 18.583 40.5147C18.4824 40.5358 18.3607 40.5656 18.2266 40.6066C17.8379 40.7271 17.3399 40.9518 16.8979 41.3591L16.7041 41.5355L16.5887 41.2995C16.5887 41.2995 16.5812 41.2896 16.57 41.266C16.5576 41.2449 16.539 41.2114 16.5179 41.1716C16.4732 41.0884 16.4061 40.9754 16.3254 40.8488C16.1602 40.5954 15.933 40.2924 15.6995 40.1012C15.6077 40.0267 15.517 39.9721 15.435 39.9385C15.4189 40.0168 15.399 40.1198 15.3767 40.2366C15.3183 40.5458 15.2413 40.9754 15.1631 41.4647C15.0066 42.442 14.8514 43.6539 14.8526 44.5716C14.8526 44.7479 14.8601 44.9143 14.8713 45.0634C15.0166 45.1043 15.2612 45.185 15.5282 45.303ZM16.2869 46.3896C16.1751 46.1387 15.851 45.8991 15.5108 45.7327C15.173 45.5625 14.8291 45.462 14.6962 45.426C14.6589 45.4148 14.6403 45.4098 14.6403 45.4098L14.5062 45.3788L14.4901 45.2409C14.4677 45.0398 14.4578 44.8138 14.4578 44.5716C14.459 42.6568 15.0861 39.6703 15.0861 39.6629L15.1209 39.4989L15.2873 39.5076C15.5394 39.5151 15.7579 39.6393 15.9516 39.7957C16.1429 39.9534 16.3142 40.1546 16.4595 40.3496C16.611 40.5545 16.7364 40.7569 16.8209 40.9021C17.7758 40.1422 18.8338 40.0776 18.8537 40.0764L19.1654 40.054L19.0486 40.3433C18.9294 40.6476 18.845 41.184 18.799 41.7776C18.7518 42.3724 18.7369 43.0281 18.7369 43.5968C18.7369 44.0165 18.7444 44.3878 18.7518 44.6573C18.7593 44.923 18.7667 45.0845 18.7667 45.0869L18.7779 45.303L18.5594 45.2931C18.542 45.2918 18.5221 45.2918 18.5022 45.2918C18.0403 45.2894 17.5945 45.5315 17.253 45.7985C16.9115 46.0667 16.6793 46.356 16.6334 46.4157C16.6284 46.4231 16.6259 46.4243 16.6259 46.4243L16.4285 46.6888L16.2869 46.3896Z" fill="#1E8274"/>
<path fill-rule="evenodd" clip-rule="evenodd" d="M17.0372 39.0803C17.3488 38.8468 18.0206 38.4271 18.9296 38.3936C18.983 38.1775 19.0873 37.754 19.2128 37.2884C19.3556 36.7507 19.5232 36.167 19.6784 35.751C19.3084 35.7734 18.6577 35.8578 18.1783 36.1621L17.9474 36.3061L17.8816 36.0429C17.8816 36.0404 17.8679 35.992 17.8431 35.9013C17.8182 35.8131 17.7797 35.6852 17.7338 35.5449C17.6344 35.2618 17.4979 34.9153 17.3439 34.6695C17.3017 34.6024 17.2582 34.5453 17.2172 34.4969C17.1415 34.6732 17.0309 34.9389 16.903 35.2506C16.6683 35.8144 16.384 36.5309 16.1729 37.1232C16.0586 37.4473 15.9655 37.7391 15.9195 37.9391C16.1456 38.1104 16.6882 38.5475 17.0372 39.0803ZM16.8074 39.4739C16.5218 38.9027 15.7929 38.3327 15.6228 38.211C15.5992 38.1911 15.5868 38.1837 15.5868 38.1837L15.4837 38.1129L15.506 37.9863C15.547 37.7478 15.6575 37.3989 15.8003 36.9916C15.9431 36.5893 16.1182 36.1348 16.2884 35.7088C16.6311 34.852 16.9527 34.1107 16.9527 34.1094L17.0297 33.9318L17.2098 34.0051C17.4134 34.0933 17.5525 34.2646 17.6779 34.4584C17.8021 34.6558 17.9064 34.8818 17.9921 35.1004C18.0827 35.3288 18.1498 35.5449 18.1982 35.7026C18.8737 35.3736 19.63 35.3524 19.892 35.3487C19.9516 35.3487 19.9851 35.3524 19.9876 35.3524L20.2869 35.3661L20.1565 35.6356C20.0385 35.879 19.8796 36.3732 19.7355 36.8811C19.5903 37.3902 19.4549 37.9217 19.3705 38.2644C19.3146 38.4917 19.281 38.6357 19.281 38.6357L19.2438 38.7909L19.0811 38.7897C19.0662 38.7872 19.0501 38.7872 19.0315 38.7872C17.961 38.786 17.206 39.4466 17.129 39.5199C17.1241 39.5223 17.1228 39.5248 17.1228 39.5248L16.9328 39.7074L16.8074 39.4739Z" fill="#1E8274"/>
<path fill-rule="evenodd" clip-rule="evenodd" d="M18.8406 33.8608C18.9176 34.0048 18.9846 34.1439 19.0182 34.2842C19.3038 34.1638 19.7446 34.0346 20.3407 34.0185C20.4698 33.7105 20.8225 32.891 21.1652 32.2539C21.231 32.1273 21.2981 32.0118 21.3627 31.9037C21.0336 31.9137 20.512 31.9708 19.9806 32.1943L19.7061 32.3098V32.013C19.7061 32.013 19.7061 31.9981 19.7049 31.9708C19.7049 31.941 19.7024 31.8951 19.6962 31.8404C19.6875 31.7299 19.6651 31.5722 19.6254 31.3934C19.5583 31.1103 19.4416 30.7737 19.238 30.4782C19.1349 30.6558 18.9846 30.9153 18.8158 31.2071C18.5339 31.6964 18.2011 32.2775 17.9689 32.6997C18.1601 32.9121 18.5848 33.4063 18.8406 33.8608ZM18.6196 34.5028C18.6208 34.5003 18.6283 34.4966 18.6382 34.4879C18.6394 34.4866 18.6432 34.4767 18.6432 34.4556C18.6469 34.3935 18.6059 34.2644 18.5302 34.1191C18.4532 33.9713 18.3451 33.8062 18.2284 33.6447C17.9949 33.3256 17.7329 33.0288 17.6299 32.9146C17.5988 32.881 17.5827 32.8649 17.5827 32.8649L17.4858 32.7606L17.5554 32.6352C18.0285 31.7634 19.0405 30.0336 19.0418 30.0336L19.1759 29.8039L19.3559 29.9989C19.7359 30.4062 19.9185 30.9078 20.0104 31.3052C20.0488 31.4679 20.0687 31.6132 20.0824 31.7336C20.6474 31.5387 21.164 31.5064 21.4694 31.5064C21.6445 31.5064 21.7501 31.52 21.7563 31.52L22.1214 31.5585L21.8879 31.8404C21.7339 32.0254 21.5092 32.429 21.3068 32.8438C21.1006 33.261 20.9082 33.6994 20.7852 33.9812C20.7058 34.17 20.6573 34.288 20.6573 34.288L20.6064 34.4121H20.4723C19.49 34.4121 18.9697 34.7412 18.8766 34.8045C18.8667 34.8108 18.8605 34.817 18.8493 34.8244L18.6196 34.5028Z" fill="#1E8274"/>
<path fill-rule="evenodd" clip-rule="evenodd" d="M20.5876 29.3127C20.7788 29.6194 20.9763 30.0156 21.0073 30.439C21.2283 30.3769 21.5674 30.3099 22.0107 30.3099C22.1088 30.3099 22.2118 30.3111 22.3211 30.3223C22.4093 30.1758 22.5794 29.8963 22.7893 29.5834C23.0028 29.268 23.2512 28.9191 23.4983 28.6359C23.1742 28.6372 22.7321 28.6645 22.4118 28.7651L22.1895 28.8309L22.1572 28.6024C22.1572 28.6024 22.1522 28.5552 22.1373 28.4708C22.1224 28.3876 22.1013 28.2721 22.0703 28.138C22.0107 27.8685 21.9138 27.5345 21.7884 27.2725C21.7487 27.188 21.7015 27.111 21.6555 27.0477L20.2809 28.8868C20.3603 28.9861 20.4721 29.1314 20.5876 29.3127ZM20.6 30.6923C20.6099 30.6402 20.6137 30.588 20.6137 30.5371C20.6149 30.2465 20.482 29.9125 20.3218 29.6368C20.1629 29.3636 19.9828 29.1426 19.9133 29.0644C19.8922 29.0408 19.8835 29.0308 19.8835 29.0308L19.7705 28.9104L21.5934 26.469L21.7511 26.5858C21.925 26.7099 22.0454 26.8962 22.1448 27.1011C22.2441 27.306 22.3211 27.5345 22.3807 27.7456C22.4416 27.9703 22.4863 28.1814 22.5123 28.3292C22.8638 28.256 23.2438 28.2423 23.5294 28.2398C23.7901 28.2398 23.9727 28.2535 23.9764 28.2535L24.457 28.2907L24.0882 28.6024C23.8733 28.785 23.5989 29.1215 23.3543 29.4617C23.1072 29.8069 22.8836 30.1584 22.7446 30.3844C22.6527 30.5346 22.598 30.6265 22.598 30.6265L22.5347 30.7383L22.4093 30.7246C22.2677 30.7134 22.1336 30.7072 22.0107 30.7072C21.3041 30.7072 20.9042 30.8947 20.8831 30.9022L20.7962 30.7271L20.8521 30.8389L20.8831 30.9022L20.5342 31.0773L20.6 30.6923Z" fill="#1E8274"/>
<path fill-rule="evenodd" clip-rule="evenodd" d="M22.9331 26.2863C23.0461 26.593 23.1641 26.9792 23.1678 27.3344C23.3764 27.2934 23.6794 27.2499 23.9762 27.2462C24.1637 27.2499 24.3525 27.2636 24.5226 27.3232C24.7014 27.1183 25.1 26.6688 25.4303 26.3273C25.367 26.3136 25.2975 26.3 25.223 26.2813C24.91 26.2155 24.504 26.1509 24.1588 26.1509H23.9228L23.9638 25.92C23.9638 25.92 23.9663 25.9001 23.9713 25.8628C23.9775 25.8256 23.9837 25.7722 23.9924 25.7064C24.006 25.5735 24.0209 25.3947 24.0209 25.2122C24.0234 25.0246 24.0023 24.8334 23.965 24.6906C23.8669 24.775 23.7403 24.8831 23.6062 25.0048C23.3057 25.2718 22.9592 25.5959 22.7928 25.7859C22.7779 25.8057 22.7618 25.8231 22.7506 25.8405C22.7928 25.9361 22.8623 26.0951 22.9331 26.2863ZM22.7531 27.5392C22.7667 27.4859 22.7729 27.4225 22.7729 27.3517C22.7729 27.1158 22.6959 26.8029 22.6016 26.5334C22.5097 26.2664 22.4054 26.0379 22.3656 25.9535C22.3545 25.9299 22.3495 25.9187 22.3495 25.9187L22.3135 25.8467L22.3358 25.7722C22.3656 25.684 22.4054 25.6381 22.4575 25.5698C22.5097 25.5065 22.5767 25.4357 22.65 25.3587C22.8027 25.2035 22.989 25.0271 23.174 24.8595C23.5453 24.523 23.9042 24.22 23.9042 24.22L24.0644 24.0846L24.1898 24.2473C24.3885 24.518 24.4108 24.8781 24.4158 25.2122C24.4146 25.422 24.3972 25.6195 24.3823 25.761C25.1087 25.8082 25.8625 26.0342 25.8712 26.0342L26.2015 26.1323L25.9494 26.3682C25.7507 26.557 25.4403 26.8898 25.1845 27.1729C24.9287 27.4548 24.7275 27.6883 24.7275 27.6907L24.6219 27.8087L24.4829 27.7317C24.3798 27.6746 24.1873 27.6436 23.9762 27.6436C23.6322 27.6436 23.2473 27.7181 23.0797 27.7553C23.025 27.7677 22.9965 27.7777 22.9965 27.7777L22.6761 27.8596L22.7531 27.5392Z" fill="#1E8274"/>
<path fill-rule="evenodd" clip-rule="evenodd" d="M26.6712 25.1041C26.8786 24.929 27.3791 24.5006 27.7528 24.2087C27.7727 24.1926 27.7938 24.1752 27.8137 24.1615C27.723 24.1317 27.6187 24.0982 27.5094 24.0647C27.1468 23.9554 26.706 23.8486 26.4837 23.8511H26.2316L26.29 23.6065C26.29 23.6065 26.3012 23.568 26.3161 23.4972C26.3335 23.4277 26.3521 23.3296 26.372 23.219C26.4129 22.9992 26.4514 22.7236 26.4514 22.5187C26.3434 22.6031 26.2093 22.7074 26.0665 22.8179C25.7784 23.0402 25.4568 23.2886 25.2631 23.4401C25.2953 23.64 25.3525 24.061 25.3525 24.4683C25.3525 24.6123 25.3463 24.7539 25.3264 24.8892C25.653 24.8942 26.2167 24.9215 26.6712 25.1041ZM26.6178 25.5114C26.2366 25.3176 25.5524 25.2816 25.2469 25.2829H25.124C25.0967 25.2854 25.083 25.2854 25.083 25.2854L24.7825 25.299L24.888 25.0171C24.9365 24.9004 24.9588 24.6905 24.9563 24.4683C24.9563 24.0883 24.8992 23.6698 24.8707 23.486C24.8595 23.4252 24.8545 23.3929 24.8545 23.3929L24.8346 23.2737L24.9265 23.2017C25.2742 22.9285 26.4601 22.0133 26.4601 22.0133L26.6216 21.8878L26.742 22.0518C26.8401 22.1983 26.8438 22.3448 26.8488 22.5149C26.8476 22.8353 26.7755 23.229 26.7259 23.4748C27.0078 23.5109 27.3319 23.6015 27.6224 23.6847C27.9987 23.7989 28.3054 23.9119 28.3067 23.9132L28.7028 24.0572L28.3389 24.2696C28.2856 24.2994 28.1502 24.4 27.995 24.5192C27.841 24.6434 27.6597 24.7911 27.4883 24.9352C27.1431 25.2195 26.8364 25.484 26.8364 25.484L26.7358 25.5697L26.6178 25.5114Z" fill="#1E8274"/>
<path fill-rule="evenodd" clip-rule="evenodd" d="M28.8734 22.9551C28.9988 23.0073 29.1156 23.0595 29.2174 23.1327L30.3188 22.3728C30.1413 22.292 29.9153 22.1902 29.7191 22.1232C29.5899 22.0772 29.4707 22.0486 29.4136 22.0462L29.1628 22.0263L29.2373 21.7904C29.2373 21.7904 29.2571 21.7233 29.2882 21.6178C29.318 21.5134 29.3602 21.3632 29.3999 21.2042C29.4546 20.9931 29.508 20.7547 29.5365 20.5635L27.8837 21.4973C27.8688 21.7084 27.8328 22.1865 27.7744 22.5367C27.7657 22.5851 27.7595 22.631 27.7496 22.6733C28.024 22.7192 28.4984 22.8074 28.8734 22.9551ZM29.0547 23.5102C28.9964 23.4332 28.7443 23.3115 28.4674 23.237C28.188 23.1538 27.8837 23.0967 27.6863 23.0657C27.5546 23.0433 27.4727 23.0334 27.4727 23.0334L27.1933 22.9986L27.3212 22.749C27.3324 22.7329 27.3634 22.6137 27.3858 22.4733C27.4069 22.3318 27.4292 22.1579 27.4454 21.994C27.4789 21.6649 27.4975 21.3682 27.4975 21.3682L27.5037 21.2576L29.883 19.9091L29.9413 20.1736C29.9513 20.2245 29.955 20.2717 29.955 20.3226C29.9525 20.592 29.8681 20.9695 29.7824 21.3023C29.7451 21.4526 29.7079 21.5892 29.6768 21.6947C29.7327 21.7096 29.7886 21.7295 29.8482 21.7469C29.9935 21.7978 30.1462 21.8611 30.2878 21.922C30.5684 22.0462 30.8007 22.1641 30.8031 22.1666L31.0962 22.3181L29.169 23.6443L29.0547 23.5102Z" fill="#1E8274"/>
<path fill-rule="evenodd" clip-rule="evenodd" d="M31.489 21.3794C31.5846 21.4192 31.6716 21.4539 31.7523 21.5098L32.7308 20.9659C32.6898 20.9411 32.6476 20.915 32.6004 20.8889C32.3719 20.7585 32.0764 20.6294 31.8566 20.6108L31.5809 20.5847L31.6927 20.3326C31.6927 20.3326 31.7088 20.2978 31.7349 20.2345C31.761 20.1737 31.797 20.0855 31.8392 19.9812C31.9212 19.7763 32.018 19.513 32.0789 19.2846C32.0838 19.2721 32.0876 19.2585 32.0913 19.2448L31.0047 19.6832C30.9973 19.9117 30.9687 20.3922 30.8532 20.7995C30.8172 20.9336 30.77 21.0615 30.7042 21.1733C30.9426 21.218 31.2456 21.2875 31.489 21.3794ZM31.566 21.8662C31.566 21.8662 31.5573 21.8538 31.5337 21.8377C31.5114 21.824 31.4778 21.8041 31.4381 21.7855C31.3574 21.747 31.2494 21.7122 31.1301 21.6787C30.8942 21.6129 30.6297 21.5607 30.4534 21.5297C30.3379 21.5111 30.2646 21.4999 30.2646 21.4999L30.2286 21.1162C30.2646 21.1062 30.3267 21.0528 30.3838 20.9312C30.4422 20.8144 30.4906 20.6493 30.5242 20.4779C30.5925 20.1352 30.6098 19.7589 30.6123 19.6136C30.6136 19.5714 30.6136 19.5478 30.6136 19.5478V19.4137L32.5421 18.6376V18.9282C32.5408 19.0697 32.5073 19.2237 32.4613 19.3901C32.4154 19.5577 32.3545 19.7353 32.2937 19.898C32.2428 20.0358 32.1919 20.1637 32.1509 20.2643C32.3856 20.3289 32.6066 20.4394 32.7929 20.5437C33.0462 20.6865 33.2225 20.8206 33.2275 20.8244L33.4746 21.0057L31.6691 22.0078L31.566 21.8662Z" fill="#1E8274"/>
<path fill-rule="evenodd" clip-rule="evenodd" d="M63.3561 64.6633C63.782 64.6645 64.1831 64.8768 64.4886 65.0755C64.645 65.1798 64.7754 65.2842 64.8673 65.3636C65.8905 64.4112 67.136 62.6503 67.7011 61.8121C67.788 61.6855 67.8575 61.5799 67.9097 61.5005C67.6613 61.3626 67.3534 61.3117 67.0454 61.3117C66.5152 61.3117 66.006 61.4657 65.8955 61.5029C65.8806 61.5067 65.8744 61.5091 65.8744 61.5091L65.6211 61.5998L65.6099 61.3303C65.5751 60.4549 65.2572 59.829 64.9381 59.4118C64.7369 59.1485 64.5333 58.9672 64.4041 58.8666L61.8014 61.8556C62.1975 62.1487 62.452 62.51 62.6011 62.8701C62.7762 63.2849 62.8221 63.6947 62.8221 64.0138C62.8221 64.2411 62.7985 64.4248 62.7811 64.5304L62.9612 64.7378C63.0891 64.6819 63.2244 64.6633 63.3561 64.6633ZM64.7307 65.7684C64.7307 65.7684 64.722 65.7598 64.7009 65.7411C64.6773 65.7213 64.6463 65.6915 64.6041 65.6579C64.5233 65.5896 64.4054 65.4977 64.27 65.4083C63.9968 65.2258 63.6404 65.0544 63.3561 65.0569C63.2319 65.0582 63.1239 65.0855 63.022 65.15L62.878 65.2419L62.3527 64.6409L62.3751 64.5428C62.3751 64.5428 62.3751 64.5416 62.3775 64.5354C62.3788 64.5304 62.38 64.5205 62.3825 64.5068C62.3862 64.4857 62.3937 64.4497 62.3987 64.4013C62.4136 64.3094 62.4247 64.1752 62.4247 64.0138C62.4247 63.7319 62.3838 63.3743 62.2372 63.0241C62.087 62.6714 61.8386 62.3287 61.4003 62.0605L61.2016 61.9376L64.3333 58.3476L64.4762 58.4345C64.4898 58.4419 64.8487 58.658 65.2175 59.1249C65.5565 59.5533 65.9017 60.1953 65.9899 61.0621C66.2283 61 66.6207 60.9168 67.0454 60.9168C67.4676 60.9168 67.932 61 68.3058 61.2931L68.4461 61.4023L68.3493 61.5538C68.3468 61.5576 67.8749 62.2877 67.2242 63.1818C66.5686 64.0722 65.7378 65.1252 64.9989 65.7747L64.8636 65.8964L64.7307 65.7684Z" fill="#1E8274"/>
<path fill-rule="evenodd" clip-rule="evenodd" d="M68.94 59.6696C69.32 59.1717 69.7434 58.3534 70.1259 57.5127C70.5357 56.6024 70.897 55.6649 71.1218 55.0614C71.1851 54.895 71.236 54.7534 71.2745 54.6454C71.2186 54.6404 71.159 54.6392 71.1044 54.6392C70.0787 54.6392 69.3498 55.1794 69.2777 55.239C69.274 55.2427 69.2728 55.2427 69.2728 55.2427L69.0095 55.4613L68.9524 55.1247C68.8779 54.6802 68.5625 54.222 68.2173 53.8594C67.9702 53.5973 67.7143 53.3813 67.5343 53.2459C67.5231 53.277 67.5107 53.3105 67.497 53.3465C67.4325 53.5154 67.3418 53.7178 67.2375 53.9401C67.0239 54.3896 66.7458 54.926 66.4688 55.4439C66.069 56.1865 65.6753 56.8893 65.4829 57.2295C66.2664 57.5226 66.6886 58.1323 66.8997 58.67C67.0363 59.0065 67.0972 59.3195 67.122 59.5281C67.3604 59.466 67.5877 59.4449 67.8025 59.4449C68.3166 59.4449 68.7289 59.5802 68.94 59.6696ZM68.9052 60.0881C68.9027 60.0881 68.8953 60.0832 68.8878 60.0807C68.8754 60.0732 68.8555 60.062 68.8282 60.0534C68.7773 60.0298 68.6978 59.9962 68.5997 59.9639C68.401 59.9031 68.1204 59.8385 67.8025 59.8385C67.5579 59.8385 67.2909 59.8758 67.014 59.9764L66.7507 60.0707L66.7482 59.7913V59.7752C66.7458 59.764 66.7458 59.7441 66.7445 59.7193C66.7395 59.6672 66.7346 59.5939 66.7184 59.502C66.6924 59.3207 66.6377 59.0736 66.5347 58.8153C66.3235 58.2962 65.9311 57.7499 65.1376 57.5325L64.8905 57.4642L65.0197 57.2432C65.0197 57.2407 65.1252 57.0607 65.2879 56.7701C65.4518 56.4745 65.6766 56.0747 65.9125 55.6363C66.3869 54.7671 66.9171 53.7476 67.1282 53.2025C67.1891 53.0522 67.2189 52.9293 67.2176 52.9069L67.2325 52.5567L67.5244 52.748C67.5318 52.7542 67.923 53.0137 68.3452 53.4272C68.704 53.7774 69.089 54.2369 69.2678 54.7683C69.6006 54.5634 70.2538 54.2455 71.1044 54.2455C71.2547 54.2455 71.4099 54.253 71.5738 54.2766L71.811 54.3101L71.7327 54.5361C71.7327 54.5398 71.3788 55.5606 70.8809 56.7577C70.3817 57.956 69.7484 59.3207 69.1511 60.0397L69.0455 60.1651L68.9052 60.0881Z" fill="#1E8274"/>
<path fill-rule="evenodd" clip-rule="evenodd" d="M69.5291 52.3409C69.6931 52.5632 69.811 52.7718 69.8868 52.9208C70.3909 52.5719 71.0155 52.5135 71.4464 52.5123C71.588 52.5123 71.7072 52.5185 71.7991 52.5259C72.2971 50.7937 72.5169 48.5709 72.5963 47.5526C72.6038 47.4483 72.61 47.3577 72.615 47.2831C71.6476 47.6482 71.2229 48.3312 71.1782 48.4045L71.1745 48.4094L71.0019 48.7261L70.8268 48.4082C70.5635 47.9214 70.109 47.5601 69.6931 47.3167C69.4521 47.1764 69.2299 47.0745 69.0672 47.0124C69.0299 47.7861 68.8188 48.818 68.6102 49.6972C68.4463 50.3826 68.2824 50.9737 68.2017 51.2568C68.8077 51.499 69.2398 51.9473 69.5291 52.3409ZM69.6297 53.307C69.6297 53.307 69.6285 53.3045 69.6248 53.2946C69.6198 53.2872 69.6148 53.2723 69.6061 53.2536C69.59 53.2164 69.5639 53.1592 69.5304 53.0922C69.4596 52.9544 69.3528 52.7693 69.21 52.5744C68.9219 52.177 68.4848 51.7486 67.8999 51.5698L67.7137 51.5126L67.7708 51.3264C67.7708 51.3239 67.8267 51.1351 67.9111 50.8235C67.998 50.513 68.111 50.0821 68.2253 49.604C68.4538 48.6516 68.676 47.5091 68.676 46.7902V46.7355L68.6736 46.4661L68.9318 46.5406C68.9393 46.5455 69.3292 46.661 69.8023 46.9243C70.2047 47.149 70.6728 47.4806 71.0106 47.9574C71.2714 47.6308 71.8302 47.0845 72.7776 46.8137L73.0434 46.7392L73.0285 47.0149C73.0272 47.0224 72.8584 50.3876 72.1307 52.7991L72.081 52.9643L71.9096 52.937C71.9096 52.937 71.9009 52.9357 71.8798 52.9332C71.8575 52.9308 71.8252 52.9245 71.7842 52.9208C71.7022 52.9134 71.5843 52.9072 71.4464 52.9072C70.9957 52.9034 70.3388 52.9941 69.9526 53.3778L69.739 53.5839L69.6297 53.307Z" fill="#1E8274"/>
<path fill-rule="evenodd" clip-rule="evenodd" d="M70.6327 45.6025C70.8189 45.7577 70.9705 45.9092 71.0785 46.0297C71.3281 45.718 71.7043 45.5094 72.0396 45.3579C72.3066 45.2387 72.5512 45.1592 72.6978 45.1182C72.7102 44.9692 72.7151 44.8028 72.7151 44.629C72.7151 43.2493 72.3662 41.2128 72.1924 40.2902C72.1675 40.1697 72.1489 40.0716 72.134 39.9909C72.0682 40.017 71.9986 40.058 71.9266 40.1114C71.7913 40.2119 71.6522 40.3548 71.5292 40.5063C71.2809 40.8142 71.0847 41.1594 71.0114 41.296C70.9903 41.3333 70.9804 41.3544 70.9804 41.3544L70.8637 41.5916L70.6674 41.414C70.0764 40.8626 69.3735 40.6478 68.9848 40.5696C69.073 40.9123 69.1264 41.3407 69.1637 41.7989C69.2133 42.4087 69.2257 43.0743 69.2257 43.6504C69.2257 44.2154 69.2133 44.6973 69.2046 44.9555C69.7821 45.0003 70.275 45.307 70.6327 45.6025ZM70.9419 46.478C70.9419 46.478 70.9394 46.4755 70.9332 46.468C70.927 46.4594 70.9171 46.4507 70.9071 46.432C70.8798 46.401 70.8438 46.3575 70.7954 46.3029C70.6973 46.1948 70.5557 46.0483 70.3818 45.9068C70.0329 45.6187 69.5573 45.343 69.0643 45.3442C69.0444 45.3442 69.0258 45.3442 69.0072 45.3467L68.7911 45.3579L68.7998 45.1381C68.7998 45.1381 68.8073 44.9791 68.816 44.7084C68.8234 44.4439 68.8321 44.0702 68.8321 43.6504C68.8321 43.0817 68.8172 42.4248 68.77 41.8325C68.7241 41.2389 68.6396 40.7012 68.5167 40.4007L68.4025 40.1089L68.7141 40.1287C68.7352 40.1312 69.792 40.1958 70.7469 40.957C70.9096 40.6739 71.2262 40.1759 71.6162 39.8493C71.8086 39.6966 72.0297 39.5687 72.2818 39.56L72.4469 39.5538L72.4805 39.7152C72.4817 39.7264 73.1088 42.7079 73.11 44.629C73.11 44.8686 73.1001 45.0921 73.0778 45.2946L73.0616 45.4336L72.9287 45.4647C72.9287 45.4647 72.9089 45.4709 72.8716 45.4796C72.8331 45.4908 72.7785 45.5057 72.7102 45.5255C72.5761 45.5715 72.3923 45.6311 72.1998 45.7205C71.8161 45.8869 71.4076 46.1551 71.2796 46.442L71.1393 46.745L70.9419 46.478Z" fill="#1E8274"/>
<path fill-rule="evenodd" clip-rule="evenodd" d="M70.5292 39.1354C70.8781 38.6027 71.422 38.1631 71.648 37.993C71.5748 37.6702 71.3823 37.12 71.165 36.5538C70.9166 35.9068 70.6385 35.2325 70.4522 34.7979C70.4149 34.7035 70.3802 34.6203 70.3504 34.552C70.3231 34.5843 70.292 34.6228 70.2622 34.665C70.1728 34.7979 70.0846 34.9705 70.0064 35.1493C69.8524 35.5057 69.7431 35.8857 69.7034 36.0322C69.691 36.0745 69.686 36.0956 69.686 36.0956L69.6202 36.3601L69.3892 36.216C68.9087 35.9105 68.2592 35.8261 67.8892 35.805C68.0444 36.2197 68.212 36.8059 68.3548 37.3411C68.4803 37.8092 68.5858 38.2327 68.6367 38.4463C69.5482 38.4785 70.22 38.8995 70.5292 39.1354ZM70.4447 39.58C70.4447 39.58 70.4448 39.5775 70.4385 39.5726C70.4336 39.5688 70.4261 39.5601 70.4137 39.5527C70.3926 39.5303 70.3591 39.503 70.3144 39.4683C70.225 39.4012 70.0933 39.3068 69.9244 39.2124C69.5867 39.0274 69.1061 38.8424 68.5361 38.8424C68.5175 38.8424 68.5014 38.8424 68.4852 38.8449L68.325 38.8461L68.2865 38.6884C68.2865 38.6884 68.253 38.5456 68.1971 38.3171C68.1413 38.0886 68.0618 37.7757 67.9724 37.4441C67.796 36.7785 67.57 36.0149 67.4111 35.6883L67.2819 35.4188L67.58 35.4051C67.5837 35.4051 67.616 35.4039 67.6743 35.4039C67.9376 35.4051 68.6938 35.4287 69.3706 35.7553C69.4625 35.4461 69.6413 34.9097 69.8897 34.5135C70.0151 34.3173 70.1542 34.146 70.3591 34.0603L70.5391 33.987L70.6149 34.1646C70.6149 34.1658 71.3388 35.8336 71.7673 37.0455C71.9101 37.4516 72.0206 37.7993 72.0615 38.0439L72.0851 38.1656L71.9821 38.2364C71.9821 38.2364 71.9697 38.2463 71.9448 38.2637C71.92 38.2836 71.8852 38.3072 71.8418 38.3432C71.7511 38.4115 71.6306 38.5121 71.4965 38.6338C71.2283 38.8759 70.9228 39.205 70.7577 39.5266L70.6347 39.765L70.4447 39.58Z" fill="#1E8274"/>
<path fill-rule="evenodd" clip-rule="evenodd" d="M68.5491 34.3391C68.5814 34.1988 68.6485 34.0597 68.7267 33.9157C68.8372 33.7157 68.9837 33.5108 69.1253 33.3233C69.3079 33.0837 69.4904 32.8726 69.5997 32.7546C69.3637 32.3299 69.0334 31.75 68.749 31.2583C68.5814 30.9689 68.4312 30.7106 68.3281 30.5343C67.932 31.103 67.8661 31.8406 67.8612 32.0232C67.8599 32.0542 67.8599 32.0667 67.8599 32.0667V32.3659L67.5855 32.2467C67.0553 32.0257 66.5337 31.9661 66.2022 31.9561C66.2692 32.0642 66.335 32.1821 66.4021 32.3063C66.5449 32.5721 66.6889 32.8688 66.8181 33.1482C66.9994 33.5382 67.1521 33.8921 67.2266 34.0709C67.8227 34.0883 68.2648 34.2162 68.5491 34.3391ZM68.687 34.8582C68.6733 34.847 68.6497 34.8321 68.6187 34.8122C68.5553 34.7775 68.4585 34.7265 68.3231 34.6731C68.0574 34.5713 67.6501 34.4645 67.0925 34.4645H66.9621L66.9112 34.3428C66.9112 34.3428 66.8007 34.0734 66.6368 33.707C66.4741 33.3395 66.2593 32.8775 66.0531 32.4938C65.9165 32.238 65.7812 32.017 65.6794 31.8953L65.4472 31.6122L65.811 31.5724C65.8172 31.5724 65.9228 31.5612 66.0978 31.5612C66.4021 31.5612 66.9187 31.5948 67.4849 31.7873C67.4961 31.6693 67.5197 31.5228 67.5569 31.3601C67.6476 30.9627 67.8289 30.461 68.2114 30.0512L68.3914 29.8588L68.5255 30.0873C68.5255 30.0873 69.5388 31.8171 70.0132 32.69L70.0802 32.8154L69.9821 32.9198C69.9821 32.9198 69.9449 32.9595 69.884 33.029C69.8207 33.0986 69.735 33.1954 69.6394 33.3134C69.4482 33.5444 69.2172 33.8474 69.0732 34.1069C68.9738 34.2795 68.9204 34.4409 68.9229 34.508C68.9229 34.5291 68.9266 34.5415 68.9291 34.544C68.9378 34.5515 68.9453 34.5552 68.9465 34.5564L68.718 34.878C68.7068 34.8718 68.6969 34.8644 68.687 34.8582Z" fill="#1E8274"/>
<path fill-rule="evenodd" clip-rule="evenodd" d="M66.5624 30.4945C66.591 30.0698 66.7909 29.6724 66.9809 29.367C67.0939 29.1881 67.2081 29.0391 67.2864 28.9423L65.9117 27.1007C65.877 27.1479 65.8434 27.2038 65.8124 27.2634C65.7341 27.4074 65.6671 27.5813 65.6137 27.7564C65.5019 28.1078 65.4423 28.4605 65.42 28.5983C65.4138 28.6355 65.4113 28.6529 65.4113 28.6529L65.3802 28.8851L65.1555 28.8181C64.8363 28.7175 64.393 28.6889 64.0689 28.6889C64.3173 28.9721 64.5669 29.3198 64.7792 29.6377C64.9891 29.9494 65.1604 30.2288 65.2486 30.374C65.3566 30.3678 65.4597 30.3653 65.5578 30.3653C66.0011 30.3653 66.3414 30.4312 66.5624 30.4945ZM66.6853 30.9577C66.6853 30.9577 66.6779 30.9552 66.6717 30.9527C66.6618 30.949 66.6456 30.939 66.622 30.9316C66.5748 30.913 66.5028 30.8881 66.4072 30.8621C66.2147 30.8136 65.9279 30.7602 65.5578 30.7602C65.4349 30.7602 65.302 30.764 65.1604 30.7801L65.0338 30.7913L64.9705 30.6808C64.9705 30.6808 64.9158 30.5876 64.8227 30.4374C64.7295 30.2871 64.6004 30.081 64.4514 29.8587C64.1534 29.4141 63.7709 28.8988 63.4803 28.6554L63.1128 28.3462L63.5921 28.309C63.5958 28.309 63.7783 28.2928 64.0379 28.2928C64.3235 28.2928 64.7035 28.3114 65.0561 28.3835C65.1083 28.0966 65.2213 27.5751 65.4212 27.1566C65.523 26.9517 65.6435 26.7642 65.8173 26.6363L65.9738 26.5245L67.7967 28.9646L67.685 29.0863C67.685 29.0863 67.675 29.0962 67.6552 29.1174C67.6353 29.1409 67.6055 29.1745 67.5707 29.2179C67.5024 29.3061 67.4093 29.4303 67.3137 29.5781C67.1287 29.8736 66.9499 30.2586 66.9523 30.5889C66.9523 30.6423 66.9585 30.6932 66.9672 30.7466L67.0368 31.134L66.6853 30.9577Z" fill="#1E8274"/>
<path fill-rule="evenodd" clip-rule="evenodd" d="M64.3989 27.3883C64.4051 27.0319 64.5219 26.647 64.6336 26.339C64.7032 26.149 64.7739 25.9913 64.8174 25.8932C64.7963 25.8646 64.7665 25.8299 64.7292 25.7901C64.6423 25.6957 64.5256 25.5803 64.3964 25.4586C64.1357 25.2127 63.8314 24.9432 63.6303 24.7681C63.6191 24.7594 63.6116 24.752 63.6029 24.7445C63.5644 24.8898 63.5458 25.0811 63.5458 25.2661C63.5458 25.5405 63.5806 25.8063 63.5967 25.918C63.6005 25.9565 63.6029 25.9739 63.6029 25.9739L63.6439 26.2061H63.4092C62.9771 26.2061 62.4642 26.3055 62.1376 26.3825C62.4667 26.7252 62.8653 27.1735 63.0429 27.3759C63.2155 27.3175 63.403 27.3039 63.5905 27.3014C63.8898 27.3039 64.1915 27.3461 64.3989 27.3883ZM64.5715 27.8304C64.5715 27.8304 64.5405 27.8229 64.4858 27.8093C64.4312 27.7981 64.353 27.7819 64.2574 27.7646C64.0686 27.7298 63.8215 27.6975 63.5905 27.6975C63.3807 27.695 63.1869 27.7285 63.0839 27.7894L62.9448 27.8639L62.8405 27.7447C62.8405 27.7447 62.6356 27.51 62.381 27.2293C62.1265 26.9462 61.8185 26.6109 61.6173 26.4222L61.3665 26.1887L61.6968 26.0894C61.7043 26.0882 62.458 25.8621 63.1832 25.8162C63.1696 25.6746 63.1522 25.476 63.1522 25.2661C63.1559 24.9321 63.182 24.5732 63.3769 24.3037L63.5011 24.1398L63.6601 24.2739C63.6625 24.2739 63.937 24.5086 64.2549 24.7917C64.574 25.0761 64.9279 25.4052 65.1092 25.6237C65.1614 25.692 65.2011 25.7392 65.2322 25.8261L65.252 25.9006L65.2185 25.9714C65.2185 25.9714 65.2135 25.9851 65.2011 26.0074C65.1899 26.0323 65.1726 26.0683 65.1527 26.113C65.1129 26.2036 65.0583 26.3291 65.0049 26.4768C64.8956 26.7674 64.7926 27.1337 64.7951 27.4082C64.7951 27.4789 64.8013 27.5423 64.8137 27.5932L64.8907 27.9148L64.5715 27.8304Z" fill="#1E8274"/>
<path fill-rule="evenodd" clip-rule="evenodd" d="M59.8159 24.2636C59.9761 24.3878 60.1587 24.5393 60.3313 24.6846C60.5647 24.8734 60.7783 25.0571 60.8963 25.1565C61.3508 24.9764 61.9145 24.9466 62.2424 24.9429C62.2213 24.8063 62.215 24.6647 62.215 24.5219C62.215 24.1159 62.2734 23.6949 62.3045 23.4937C62.1083 23.3422 61.7904 23.0951 61.501 22.8704C61.3595 22.7611 61.2241 22.6568 61.1148 22.5736C61.1148 22.8828 61.2055 23.3472 61.2527 23.5521C61.2676 23.6216 61.2775 23.6614 61.2775 23.6614L61.3371 23.9048H61.0838C60.9186 23.9048 60.6243 23.9631 60.3424 24.0389C60.1313 24.0948 59.9215 24.1606 59.7538 24.214C59.7749 24.2326 59.7948 24.2463 59.8159 24.2636ZM60.7324 25.5389C60.7324 25.5389 60.5597 25.3912 60.3263 25.195C60.0966 25 59.8047 24.7579 59.5713 24.5741C59.4186 24.4524 59.2832 24.3543 59.2286 24.3232L58.866 24.1097L59.2608 23.9644C59.2633 23.9644 59.5688 23.8539 59.9463 23.7409C60.2381 23.6539 60.5647 23.567 60.8416 23.5273C60.792 23.2851 60.7212 22.8902 60.7199 22.5723C60.7237 22.401 60.7274 22.2532 60.8243 22.1079L60.9459 21.9415L61.1074 22.0657C61.1074 22.0657 62.2933 22.9809 62.641 23.2553L62.7354 23.3273L62.713 23.4478C62.713 23.4478 62.7068 23.4813 62.6981 23.5397C62.6882 23.6005 62.6745 23.6875 62.6621 23.7918C62.636 23.9979 62.6112 24.2699 62.6112 24.5219C62.6087 24.7442 62.636 24.9541 62.6795 25.072L62.7875 25.3539L62.4833 25.3378H62.4411C62.415 25.3365 62.374 25.3365 62.3256 25.3365C62.0151 25.3341 61.3309 25.3713 60.9509 25.5675L60.8317 25.6234L60.7324 25.5389Z" fill="#1E8274"/>
<path fill-rule="evenodd" clip-rule="evenodd" d="M58.3497 23.1857C58.4503 23.1149 58.5683 23.0615 58.6962 23.0081C58.8837 22.9361 59.0948 22.8765 59.2935 22.8318C59.4922 22.7859 59.6797 22.7511 59.8175 22.7275C59.8101 22.6865 59.8001 22.6406 59.7927 22.5909C59.7666 22.4357 59.7455 22.2594 59.7281 22.088C59.7058 21.8732 59.6909 21.6683 59.6822 21.5528L58.0306 20.6165C58.0492 20.7357 58.0753 20.876 58.1076 21.0126C58.1647 21.2634 58.233 21.513 58.279 21.6732C58.3112 21.7788 58.3299 21.8434 58.3299 21.8434L58.4031 22.0843L58.1548 22.0992C58.0654 22.1016 57.8518 22.1687 57.6457 22.2531C57.5066 22.3078 57.365 22.3711 57.247 22.4282L58.3497 23.1857ZM56.4709 22.3711L56.7665 22.2221C56.769 22.2196 57.2843 21.9526 57.7189 21.8024C57.7785 21.7813 57.8356 21.7651 57.8903 21.7477C57.8592 21.6434 57.822 21.5056 57.7847 21.3553C57.7015 21.025 57.6146 20.6463 57.6121 20.3768C57.6121 20.3271 57.6159 20.28 57.6283 20.2266L57.6842 19.9645L59.9715 21.2622L60.0634 21.3131L60.0708 21.4212C60.0708 21.4212 60.0808 21.5875 60.0994 21.8111C60.118 22.0333 60.1478 22.314 60.1826 22.5288C60.2037 22.6642 60.2385 22.7859 60.2484 22.802L60.3738 23.0516L60.0944 23.0876C60.0944 23.0876 60.0497 23.0951 59.9715 23.105C59.8908 23.1162 59.779 23.136 59.6536 23.1584C59.4003 23.2093 59.0812 23.2838 58.839 23.3782C58.6763 23.4378 58.5522 23.5185 58.5137 23.5657L58.3982 23.6998L56.4709 22.3711Z" fill="#1E8274"/>
<path fill-rule="evenodd" clip-rule="evenodd" d="M55.8152 21.5625C55.8922 21.5104 55.9816 21.4744 56.0797 21.4334C56.2374 21.3763 56.4162 21.3254 56.5889 21.2856C56.6845 21.2633 56.7776 21.2446 56.8633 21.2273C56.836 21.1826 56.8148 21.1354 56.7937 21.0882C56.7105 20.8895 56.6609 20.6635 56.6261 20.4449C56.5826 20.1606 56.5665 19.8923 56.5615 19.7371L55.4775 19.3C55.4986 19.3869 55.5284 19.4813 55.5607 19.5757C55.6389 19.8178 55.7382 20.0612 55.8016 20.2189C55.845 20.3232 55.8748 20.3878 55.8748 20.3878L55.9866 20.6399L55.7109 20.6647C55.5209 20.6821 55.2688 20.7815 55.0565 20.8932C54.9758 20.9354 54.9025 20.9801 54.8355 21.0211L55.8152 21.5625ZM54.0929 21.0609L54.3387 20.8796C54.3412 20.8758 54.5225 20.7417 54.7734 20.5989C54.9609 20.4946 55.1819 20.3841 55.4154 20.3208C55.3247 20.101 55.1918 19.7545 55.1074 19.4453C55.0602 19.2764 55.0267 19.1249 55.0254 18.9834V18.6915L56.9552 19.4689V19.6005C56.9552 19.6005 56.9552 19.6428 56.9577 19.711C56.9589 19.7781 56.9639 19.8787 56.9726 19.9904C56.9899 20.2189 57.026 20.5095 57.0943 20.7479C57.1365 20.9032 57.1998 21.0373 57.2569 21.1056C57.2892 21.1453 57.3178 21.1627 57.3401 21.1714L57.3041 21.5551C57.3041 21.5551 57.2681 21.5588 57.2048 21.5688C57.1427 21.5799 57.0545 21.5936 56.9539 21.6135C56.7528 21.6532 56.4982 21.7078 56.2958 21.7749C56.1629 21.8184 56.0536 21.873 56.0139 21.9065C56.0052 21.9152 56.0015 21.9189 56.0015 21.9189L55.8972 22.0605L54.0929 21.0609Z" fill="#1E8274"/>
<path fill-rule="evenodd" clip-rule="evenodd" d="M14.1307 24.5C13.5321 23.4892 12.4729 23.1949 11.7837 23.2744C11.0933 23.3502 10.8462 23.7165 10.7406 23.9624C10.6338 24.2082 10.2948 25.0973 10.2029 25.6214C10.111 26.1429 9.89745 26.9724 9.83412 27.3251C9.77452 27.6778 9.85026 27.7237 10.0961 27.8305C10.342 27.9385 10.6798 27.6306 10.7257 27.4766C10.7692 27.3251 10.9405 25.3904 11.0014 25.2675C11.0622 25.1458 11.1392 24.3014 11.8905 24.2554C12.6443 24.2082 13.747 25.2377 13.7631 26.8172C13.778 28.3967 13.3335 29.0276 13.3335 29.0276C13.0118 27.7995 12.458 26.6483 12.4282 26.5713C12.3972 26.4943 12.35 25.974 11.9365 25.974C11.5217 25.974 11.0473 26.5105 11.0473 26.5105C10.9554 26.5577 11.0622 26.6794 11.2324 26.7402C11.4782 26.8309 12.1972 27.7995 12.4282 28.1832C12.6579 28.5681 12.9659 29.1977 12.8901 29.487C12.8119 29.7776 13.1497 30.2246 13.5023 30.1936C13.855 30.1626 14.0711 29.0425 14.0711 28.7829C14.0711 28.5209 14.6224 27.6306 14.7292 26.9091C14.8373 26.1876 14.7292 25.5133 14.1307 24.5ZM11.6608 28.8574C12.1053 29.1207 12.2432 28.9655 12.3972 28.8276C12.5524 28.6886 12.35 28.429 12.1376 28.2453C11.9216 28.0602 11.7527 27.8628 11.4919 27.8628C11.2324 27.8628 11.0622 28.09 11.0622 28.09C10.9704 28.2005 11.2162 28.5979 11.6608 28.8574ZM12.3636 30.4805C12.0134 30.4805 11.6446 30.2979 11.1442 29.8459C10.64 29.3927 10.2899 29.2436 9.93843 29.2275C9.58701 29.2101 9.30264 29.6795 9.30264 29.6795C9.18715 29.6621 9.38708 30.1303 9.93843 30.6481C10.491 31.1672 10.9592 31.4528 11.6608 31.4851C12.3636 31.5198 12.6306 31.2677 12.8169 31.0666C12.9994 30.8654 12.7151 30.4805 12.3636 30.4805Z" fill="#1E8274"/>
<path fill-rule="evenodd" clip-rule="evenodd" d="M26.8625 17.9821C26.6651 17.4369 26.4006 17.124 25.8728 16.4634C25.3451 15.8065 24.2411 14.3225 23.6476 13.3974C23.0552 12.4748 22.3934 11.5186 22.3934 11.3373C22.3934 11.1572 22.1152 10.545 21.5378 10.694C21.5378 10.694 21.2571 10.9089 21.1739 11.2715C21.092 11.6328 21.2733 11.8141 21.5378 11.9321C21.801 12.0463 22.263 12.9193 22.443 13.1838C22.6243 13.4496 23.8289 15.3619 24.4224 16.0362C25.0148 16.7117 26.5484 18.8066 26.6316 19.0028C26.7135 19.2015 27.06 18.526 26.8625 17.9821ZM21.4707 13.9587C20.9765 13.2496 20.9268 12.8858 20.5791 12.8858H20.1358C20.1358 12.8858 19.8216 12.9864 19.839 13.462C19.8539 13.9425 20.1172 14.289 20.6139 14.9794C21.1081 15.6748 21.585 16.4634 22.0643 16.4807C22.5424 16.4969 23.0701 16.3826 22.8553 15.9691C22.6417 15.5581 21.9662 14.6665 21.4707 13.9587ZM20.943 17.8504C20.8101 17.7002 20.0526 15.9021 19.6577 15.0639C19.2616 14.2219 19.1796 14.3225 18.7015 14.3225C18.2235 14.3225 17.7118 14.5374 17.6783 14.9658C17.646 15.3929 17.8596 15.3743 17.8596 15.3743C17.8596 15.3743 18.2396 15.4935 18.5029 15.7059C18.7661 15.9195 19.4913 17.3388 19.6242 17.7188C19.7558 18.0975 19.6726 18.2279 20.1681 18.5918C20.6636 18.9531 21.092 18.706 21.241 18.4601C21.3875 18.2118 21.0758 17.9982 20.943 17.8504Z" fill="#1E8274"/>
<path fill-rule="evenodd" clip-rule="evenodd" d="M34.9416 12.1782C34.9416 12.1782 35.3129 10.9663 35.8071 10.2622C35.8071 10.2622 35.7699 10.5329 36.1275 10.523C36.1275 10.523 36.1536 10.5714 36.0667 10.6695C35.981 10.7688 35.226 11.6704 34.9416 12.1782ZM35.5724 8.71492C35.4855 8.70375 35.5091 8.49264 35.596 8.48147C35.596 8.48147 35.7947 8.35729 35.9065 8.35729C36.0157 8.35729 36.1039 8.46781 36.0157 8.5299C35.9301 8.59323 35.6581 8.72734 35.5724 8.71492ZM35.5463 7.4185C35.6221 7.36759 35.7699 7.38001 35.8195 7.45452C35.8195 7.45452 35.8816 7.56628 35.7699 7.6532C35.6581 7.73888 35.5464 7.8494 35.4482 7.73888C35.3502 7.62464 35.4731 7.46693 35.5463 7.4185ZM35.832 5.98301C35.9909 5.95693 36.0667 6.14444 35.894 6.23012C35.7202 6.31456 35.5228 6.33071 35.5228 6.33071C35.4482 6.11836 35.6705 6.0066 35.832 5.98301ZM35.1515 8.02325C35.0645 8.18468 34.7305 8.37095 34.6672 8.25671C34.6051 8.14619 34.7305 8.10893 34.6051 8.14619C34.4846 8.18468 34.4089 8.24553 34.3716 8.02325C34.3344 7.80097 34.3108 7.23224 34.4846 7.25832C34.4846 7.25832 34.5691 7.40484 34.805 7.56628C35.0397 7.72647 35.2384 7.86182 35.1515 8.02325ZM36.993 6.16927C36.9694 5.98301 36.7956 5.93334 36.536 5.94451C36.2765 5.95693 36.351 5.84641 36.351 5.84641C36.3647 5.56204 36.8701 5.30127 37.1669 5.35342C37.4637 5.40061 37.6102 5.84641 37.6102 6.30587C37.6102 6.7616 37.0799 7.56628 36.993 7.56628C36.9073 7.56628 36.8453 7.43092 36.7099 7.36759C36.5721 7.30426 36.3647 7.31792 36.3125 7.29309C36.2616 7.26949 36.3013 7.14531 36.3647 6.97271C36.4243 6.79886 36.5609 6.81127 36.7956 6.63867C37.0303 6.46606 37.0191 6.35306 36.993 6.16927ZM37.8846 12.3161C37.8846 12.3161 38.0808 12.2018 38.1802 12.0044C38.2795 11.8057 38.2547 11.5959 37.9951 11.6207C37.7344 11.6468 37.3904 12.028 37.3904 12.028C37.3767 12.0789 37.0427 11.6207 36.7819 11.8579C36.5236 12.0913 36.9558 12.7234 37.0191 12.7706C37.0799 12.8215 37.0191 12.8836 36.9198 13.0202C36.8217 13.1543 36.4379 13.6473 36.3125 13.5628C36.1896 13.4747 36.3883 12.2018 36.4131 12.0677C36.4379 11.9324 36.4988 11.7213 36.6726 11.6331C36.8453 11.5487 37.5257 11.1997 37.7853 11.0271C38.0436 10.8545 38.1317 10.8185 38.241 10.5453C38.354 10.2734 38.0436 10.2858 37.6499 10.4584C37.2538 10.631 35.9437 11.3761 35.9437 11.3761C35.9437 11.3761 36.993 10.2125 37.0924 10.0647C37.1917 9.91324 37.0427 9.77913 36.9446 9.77913C36.8453 9.77913 36.7819 9.84122 36.6466 9.86605C36.5125 9.89213 35.9537 9.96415 35.9537 9.96415C35.9537 9.96415 36.2889 9.43391 36.5721 9.06138C36.8577 8.69133 36.8453 8.65408 36.772 8.54232C36.6987 8.42931 36.351 8.4082 36.351 8.4082L36.3647 8.27161C36.5125 8.29396 37.5866 8.22194 37.9455 6.81127C38.3043 5.40061 38.1069 4.99331 37.5382 4.73253C36.9694 4.473 36.4504 4.78469 36.4504 4.78469C36.4504 4.78469 36.4504 4.5115 36.3883 4.22837C36.3249 3.94276 35.9301 3.89185 35.8556 3.91668C35.7823 3.94276 35.8444 4.98089 35.8444 4.98089C35.7823 4.99331 35.3129 5.30127 35.3129 5.30127C35.226 4.88279 35.1155 4.71018 34.9776 4.62201C34.8423 4.53633 34.5827 4.586 34.5455 4.68659C34.507 4.78469 34.7678 5.47512 34.7566 5.52603C34.7417 5.5757 34.3108 5.80916 34.1742 6.0066C34.0363 6.20528 34.0997 6.45364 34.3468 6.57658C34.5951 6.70076 34.8671 6.46606 34.8671 6.46606C34.8286 6.48965 34.9416 6.81127 34.9416 6.81127C34.6808 6.72435 34.5455 7.07081 34.4846 7.07081C34.4213 7.07081 34.4474 6.8746 34.3232 6.74919C34.1978 6.62625 33.829 6.58899 33.6191 6.70076C33.408 6.81127 33.3707 7.80097 33.3956 8.27161C33.4192 8.741 33.9643 8.95086 34.0997 8.93844C34.2375 8.92603 34.3108 8.59323 34.3108 8.59323C34.3108 8.59323 34.4213 8.81427 34.5331 8.92603C34.6436 9.03654 34.8174 8.91485 34.9155 8.8391C35.0161 8.76584 35.0645 8.76584 35.103 8.76584C35.139 8.76584 35.0894 8.92603 35.0894 8.92603C35.0894 8.92603 34.6572 9.20915 34.497 9.35817C34.3344 9.50594 34.3232 9.59286 34.5206 9.76671C34.7181 9.93932 35.0273 9.85488 35.2011 9.85488C35.3737 9.85488 35.7823 9.34451 35.7823 9.34451C35.7823 9.34451 35.3862 9.90207 34.7678 11.3997C34.1493 12.896 33.9892 13.4163 33.9892 13.7106C33.9892 14.0099 34.1121 14.0571 34.2735 13.7479C34.4337 13.4387 35.1241 12.3024 35.1241 12.3024C35.1241 12.3024 35.103 12.4266 35.2384 12.4378C35.3737 12.449 35.894 12.0677 35.894 12.0677C35.7438 12.449 35.6221 13.6473 35.6221 13.9354C35.6221 14.221 35.7823 14.4408 35.9176 14.4532C36.0542 14.4656 36.1896 14.3166 36.4628 13.9838C36.7335 13.6473 37.4264 12.9829 37.4264 12.9829C37.4885 13.0065 37.7232 13.2797 38.0324 13.4275C38.3416 13.5753 38.6756 13.353 39.2692 13.3406C39.8615 13.3269 40.2328 13.2896 40.2577 13.2673C39.4915 13.1915 37.8846 12.3161 37.8846 12.3161Z" fill="#1E8274"/>
<path fill-rule="evenodd" clip-rule="evenodd" d="M52.797 8.03461C52.5995 8.07186 52.2407 8.03461 51.9811 8.03461C51.7216 8.03461 51.6831 7.95017 51.7824 7.91292C51.7824 7.91292 52.4505 7.61613 53.6501 7.62482C53.6625 7.63972 52.9795 7.88684 52.797 8.03461ZM50.4463 11.3241C50.2364 11.3377 49.9521 11.3874 50.0266 11.2868C50.1011 11.1887 50.7443 11.0273 50.7443 11.0273C50.8809 11.0385 50.6562 11.3129 50.4463 11.3241ZM56.084 7.33052C56.0604 6.99772 55.8865 6.88348 55.17 6.85989C54.4548 6.83629 53.0068 7.05857 52.9212 7.05857C52.8342 7.05857 53.6377 6.62643 53.9096 6.51591C54.1816 6.40415 54.1083 6.41533 54.2437 6.46624C54.3802 6.51591 54.4784 6.41533 54.5789 6.31474C54.677 6.21664 54.713 6.04528 54.6274 5.96829C54.5392 5.89626 54.3293 5.66157 54.2188 5.43805C54.1083 5.21577 53.9344 5.09283 53.6737 5.09283C53.4154 5.09283 53.4278 5.53863 53.3657 5.71124C53.3036 5.88509 53.0813 6.09495 53.0068 6.09495C52.9323 6.09495 53.0429 5.89626 53.1062 5.72366C53.1683 5.55105 53.0565 5.34119 52.8839 5.16858C52.71 4.99349 52.4629 4.75879 52.2158 4.82212C51.9687 4.88297 51.9551 5.19217 51.919 5.46288C51.8818 5.73607 51.8197 5.84659 51.6955 5.89627C51.5738 5.94469 51.2646 6.11854 51.2646 6.11854C51.2646 6.11854 51.2758 5.93352 51.3006 5.85901C51.323 5.7845 51.2646 5.56223 51.0051 5.56223C50.7443 5.56223 50.5841 5.79816 50.496 6.20547C50.4103 6.61401 50.5345 6.83629 50.7555 6.84871C50.979 6.85989 50.9542 6.7146 51.1653 6.51591C51.3739 6.31474 51.585 6.33089 51.6334 6.31474C51.5353 6.97289 51.9551 7.08465 51.9551 7.08465C51.3739 7.38019 49.8279 7.72541 49.4827 7.72541C49.1375 7.72541 49.099 7.65338 49.099 7.65338C49.099 7.65338 48.9512 7.78874 48.7028 7.91292C48.4557 8.03461 48.4445 8.48165 48.976 8.48165C49.5087 8.48165 50.3606 8.2097 50.8908 8.04703C51.4248 7.88684 51.585 7.91292 51.4732 8.03461C51.3627 8.16127 51.1516 8.18486 51.0535 8.41832C50.9542 8.65426 51.2149 8.80203 51.3987 8.80203C51.585 8.80203 51.1404 8.99823 50.9057 9.09882C50.6698 9.19816 50.7443 9.12241 50.496 9.20933C50.0514 9.48377 50.0887 9.71722 50.2501 9.8414C50.4103 9.96434 50.6822 9.87741 50.979 9.77931C51.2758 9.68121 51.2882 9.76689 51.2882 9.8414C51.2882 9.91342 51.1404 9.95068 50.8064 10.1494C50.4724 10.348 50.5208 10.5703 50.6201 10.5827C50.7195 10.5964 50.7816 10.5964 50.645 10.6697C49.0257 11.3986 49.2107 11.5228 49.2852 11.6705C49.3585 11.8183 50.4103 11.6842 50.4103 11.6842C50.2613 11.8816 50.1383 12.3374 50.1383 12.3374C49.7422 12.3535 49.1375 12.4491 49.0257 12.4491C48.9139 12.4491 48.8643 12.0915 48.9139 12.0431C48.3589 12.3274 48.2695 12.808 48.5563 12.8962C48.8382 12.9831 49.7049 12.7112 49.9521 12.6366C50.1992 12.5621 50.1135 12.5994 50.0266 12.7347C49.9396 12.8713 49.916 13.1421 49.916 13.1421C49.8167 13.1793 49.5448 13.044 49.5448 13.044C49.5448 13.044 49.6441 13.1917 49.8415 13.3532C50.039 13.5146 49.9396 13.7617 50.2873 13.9219C50.6338 14.0833 50.7071 13.7108 50.7679 13.4525C50.83 13.1917 50.9666 12.7347 50.9666 12.7347C51.251 12.7236 51.4732 12.8589 51.5602 12.9309C51.6458 13.0067 51.3503 13.1793 51.3503 13.1793C51.3503 13.1793 51.3987 13.2054 51.7949 13.1793C52.191 13.1545 51.9302 13.4388 52.3127 13.3643C52.6976 13.2898 52.5995 12.8713 52.3884 12.623C52.1786 12.3746 51.1777 12.3635 51.1404 12.3635C51.1019 12.3635 51.2385 11.9673 51.436 11.7078C51.6334 11.4483 51.8445 11.3874 52.0929 11.375C52.34 11.3638 52.4629 11.2632 52.4629 11.0646C52.4629 10.8659 51.9302 10.9665 51.8445 10.9292C51.7576 10.8919 51.7713 10.7814 51.9935 10.6945C52.2158 10.6088 52.304 10.5827 52.2903 10.3716C52.2767 10.1618 51.9066 10.1121 51.8073 9.97675C51.7092 9.8414 52.0171 9.82898 52.3884 9.82898C52.761 9.82898 53.0429 9.66755 53.0429 9.49619C53.0429 9.32358 52.8591 9.14849 52.5499 9.14849C52.2407 9.14849 51.8321 9.34469 51.5229 9.34469C51.215 9.34469 51.102 9.32358 51.0908 9.30992C51.0784 9.2975 52.6355 8.60459 52.8082 8.50525C52.9795 8.40839 52.8082 8.27055 52.9795 8.19852C53.1559 8.12278 54.0822 7.67698 54.2437 7.65338C54.4038 7.62482 54.7627 7.66456 55.1477 7.66456C55.5301 7.66456 56.1113 7.66456 56.084 7.33052Z" fill="#1E8274"/>
<path fill-rule="evenodd" clip-rule="evenodd" d="M66.1007 18.027C65.9778 17.7178 65.6561 17.7178 65.6561 17.7178C65.5208 17.7662 65.2861 17.976 65.2116 18.5448C65.1371 19.1148 65.2861 20.215 65.409 20.7229C65.5332 21.2308 65.8163 21.2419 66.0759 21.2159C66.3354 21.1923 66.4223 21.3636 66.621 21.4158C66.8184 21.4642 66.9662 20.847 66.9923 20.3392C67.0159 19.8338 66.436 19.003 66.3354 18.7683C66.2373 18.5324 66.2261 18.3374 66.1007 18.027ZM68.2515 16.0128C68.6724 16.0736 69.0574 15.6899 69.3653 15.4677C69.6745 15.2454 69.7615 14.8877 69.6745 14.5525C69.5889 14.2209 69.3293 13.7987 68.8823 13.8956C68.439 13.9961 68.4129 14.4655 68.1546 14.848C67.597 15.4304 67.1624 15.6154 66.9165 15.6403C66.6707 15.6663 65.6934 15.0728 65.6934 15.0728C65.6077 15.0467 65.4463 15.4043 65.2861 15.8985C65.1247 16.394 65.558 16.5927 65.558 16.5927C64.3212 17.6172 60.5499 17.385 60.4133 17.4471C60.6232 17.7066 62.0339 18.1487 63.7388 18.1027C65.4463 18.0506 65.8052 17.4321 66.2125 17.3229C66.621 17.2111 66.5726 17.2856 67.0047 17.298C67.4369 17.3092 68.5992 17.8047 68.6861 17.8283C68.7718 17.8544 68.809 17.5923 69.0325 17.421C69.2548 17.2484 69.4783 17.1242 69.4783 17.113C69.4783 16.6188 68.1298 16.0364 68.2515 16.0128Z" fill="#1E8274"/>
<path fill-rule="evenodd" clip-rule="evenodd" d="M73.3356 25.3716C73.6436 25.3592 73.918 25.2362 73.8547 25.1977C73.5455 24.8289 74.0782 24.7532 74.0782 24.7532C73.9789 24.6551 73.5828 24.5669 73.4338 24.5806C73.286 24.593 72.7657 24.8028 72.7793 25.0127C72.793 25.2238 73.0264 25.3852 73.3356 25.3716ZM80.2064 24.9717C80.0587 24.8997 79.9506 25.0462 79.6712 25.1692C79.3906 25.2946 79.3421 25.3256 79.1919 25.2772C79.0453 25.2275 78.8454 24.9978 78.8454 24.9978C78.4729 24.9916 78.53 25.3716 78.5797 25.4833C78.6281 25.5963 78.5163 25.692 78.2692 25.6336C78.0221 25.5703 77.7874 25.4958 77.6521 25.6075C77.5142 25.718 77.5652 26.0285 77.662 26.0893C77.7614 26.1502 77.441 26.1887 77.2423 26.2744C77.0448 26.3613 76.9964 26.5103 77.0945 26.6208C77.1939 26.7326 77.2671 26.9176 77.2547 27.0654C77.2423 27.2144 76.8462 27.1759 76.3768 26.9064C75.9074 26.6332 74.9661 25.6708 74.7078 25.4225C74.4483 25.1741 74.3117 25.0624 74.1267 25.2238C73.9404 25.3852 74.1143 25.6075 74.3489 25.7814C74.5849 25.954 76.2054 27.3758 76.5755 27.87C76.9455 28.3643 76.5866 28.3009 76.1917 28.2041C75.7944 28.106 75.4144 27.9197 75.2169 27.8067C75.017 27.6949 74.9661 27.202 74.7687 27.0058C74.5712 26.8058 74.4731 26.9313 74.4731 27.0529C74.4731 27.1759 74.5588 27.3634 74.3489 27.3634C74.1378 27.3634 73.8907 27.4379 73.7218 27.6105C73.5455 27.7831 73.3977 28.0687 73.2115 28.106C73.0265 28.142 72.5335 27.2641 72.2826 26.8319C72.0367 26.3973 71.8405 26.3116 71.6419 26.4966C71.4444 26.6817 71.6903 27.1287 71.9014 27.387C72.1113 27.6478 72.4714 28.1792 72.5931 28.4524C72.5074 28.748 71.7896 28.7592 71.3823 28.5977C70.975 28.4388 70.975 28.0551 71.011 27.7459C71.0471 27.4379 71.2942 27.3373 71.2085 27.202C71.1216 27.0654 70.6261 27.3634 70.528 27.7459C70.4299 28.1283 70.4051 28.7852 70.985 29.082C71.5674 29.3788 72.1721 29.3416 72.4205 29.2931C72.6688 29.241 72.8923 28.9951 72.9283 28.9951C72.9644 28.9951 73.3853 29.6508 73.6076 29.9575C73.8299 30.2679 74.1378 30.294 74.2757 30.0829C74.4098 29.873 73.6436 28.563 73.6436 28.563C73.7069 28.563 74.1006 27.9806 74.2384 27.9309C74.3738 27.8837 74.5849 27.8576 74.8183 27.87C75.0543 27.8837 75.623 28.3891 76.1297 28.7964C76.6363 29.2062 77.0076 29.3912 77.2175 29.2782C77.4273 29.1689 77.477 28.9703 77.4522 28.6263C77.4273 28.2773 76.753 27.3634 76.753 27.3634C77.1814 27.5695 77.585 27.4702 77.6918 27.3957C77.7999 27.3237 77.8247 27.0989 77.8247 26.8431C77.8247 26.5873 78.0221 26.5227 78.1724 26.5227C78.3189 26.5227 78.7064 26.9822 78.838 27.0318C78.9708 27.0828 78.8131 26.4718 78.8045 26.324C78.797 26.1763 78.9112 26.2234 79.2254 26.2346C79.5396 26.2408 79.6712 26.257 79.7929 26.1837C79.9196 26.1092 79.7855 25.9875 79.7693 25.8869C79.7532 25.7888 79.9096 25.7727 80.0835 25.7391C80.2561 25.7069 80.3964 25.6808 80.4374 25.4833C80.4784 25.2847 80.353 25.0462 80.2064 24.9717ZM76.414 25.4262C76.2253 25.6957 76.4972 25.9204 76.7605 25.9204C77.0237 25.9204 77.2137 25.6808 77.4608 25.5492C77.708 25.4188 77.8992 25.3182 78.1364 25.2362C78.3785 25.153 78.5412 25.0313 78.566 24.8401C78.5909 24.6513 78.4009 24.3446 78.4009 24.3446C78.2531 24.2465 78.1724 24.3546 78.0134 24.5259C77.8582 24.6985 77.5453 24.8326 77.2063 24.9717C76.8685 25.112 76.604 25.153 76.414 25.4262ZM76.3246 25.0723C76.4798 25.0462 76.4066 24.8252 76.4401 24.706C76.4711 24.593 76.8027 24.4527 77.0163 24.4378C77.2311 24.4191 77.3963 24.3931 77.5527 24.2875C77.708 24.1795 77.7328 24.0242 77.7328 24.0242C77.6347 23.53 76.686 23.7039 76.1421 23.9336C75.5982 24.1658 75.5001 24.3782 75.5895 24.7159C75.6801 25.0549 76.1669 25.0934 76.3246 25.0723Z" fill="#1E8274"/>
<path fill-rule="evenodd" clip-rule="evenodd" d="M37.7775 18.8454V18.0333C38.1476 17.8781 38.4965 17.6769 38.8206 17.4285H39.6576V21.5364H38.7511V18.3102C38.4419 18.5263 38.1165 18.7063 37.7775 18.8454Z" fill="#1E8274"/>
<path fill-rule="evenodd" clip-rule="evenodd" d="M41.5598 18.6825C41.5598 19.1481 41.7522 19.3791 42.1397 19.3791C42.465 19.3791 42.6414 19.1481 42.6737 18.6825C42.6414 18.2044 42.465 17.956 42.1397 17.9411C41.7522 17.956 41.5598 18.2044 41.5598 18.6825ZM40.7005 20.5141H41.6057C41.6678 20.8556 41.8143 21.0269 42.0466 21.0269C42.5122 21.0269 42.7196 20.5948 42.6737 19.7268C42.4414 19.9118 42.1695 19.9987 41.8615 19.9801C41.1189 19.9205 40.7067 19.5033 40.6322 18.7296C40.6781 17.8778 41.1649 17.4134 42.0937 17.3364C43.0834 17.3364 43.5777 17.9461 43.5777 19.1705C43.6398 20.7935 43.1381 21.5982 42.0701 21.5845C41.1574 21.5845 40.7005 21.2281 40.7005 20.5141Z" fill="#1E8274"/>
<path fill-rule="evenodd" clip-rule="evenodd" d="M45.9911 19.493C45.9911 18.4723 45.8123 17.9557 45.4584 17.9408C45.0859 17.9557 44.9095 18.4723 44.9257 19.493C44.9095 20.5001 45.0859 21.0093 45.4584 21.0266C45.8123 21.0093 45.9911 20.5001 45.9911 19.493ZM46.92 19.493C46.8889 20.8565 46.3947 21.5532 45.436 21.5842C44.5072 21.5532 44.0353 20.8565 44.0192 19.493C44.0353 18.0861 44.5072 17.3684 45.436 17.3361C46.3947 17.3684 46.8889 18.0861 46.92 19.493Z" fill="#1E8274"/>
<path fill-rule="evenodd" clip-rule="evenodd" d="M49.357 20.2365C49.3409 19.741 49.1571 19.4864 48.8007 19.4715C48.4592 19.5026 48.2742 19.7584 48.2444 20.2365C48.258 20.7481 48.4455 21.0101 48.8007 21.0275C49.1409 21.0101 49.3272 20.7481 49.357 20.2365ZM50.1679 18.426H49.2875C49.2713 18.2558 49.2328 18.1279 49.1732 18.0336C49.0788 17.9702 48.9634 17.9404 48.823 17.9404C48.4369 17.9566 48.2444 18.3639 48.2444 19.171C48.4132 18.9674 48.6691 18.8693 49.0106 18.8693C49.7978 18.9301 50.2225 19.356 50.2859 20.1458C50.2697 20.5631 50.153 20.8959 49.9382 21.1417C49.6277 21.4211 49.2328 21.5664 48.7547 21.5838C47.7799 21.5838 47.2994 21.0014 47.3143 19.8428C47.2683 18.1565 47.8097 17.3208 48.9398 17.3369C49.7444 17.3816 50.153 17.7479 50.1679 18.426Z" fill="#1E8274"/>
<path fill-rule="evenodd" clip-rule="evenodd" d="M13.9355 13.9365C6.24021 21.6318 1.48419 32.2565 1.48419 43.9988C1.48419 55.7423 6.24021 66.3682 13.9355 74.0635C21.6321 81.76 32.2555 86.5161 43.999 86.5161C55.7425 86.5161 66.3672 81.76 74.0638 74.0635C81.7591 66.3682 86.5163 55.7423 86.5163 43.9988C86.5163 32.2565 81.7591 21.6318 74.0638 13.9365C66.3672 6.23995 55.7425 1.48269 43.999 1.48269C32.2555 1.48269 21.6321 6.23995 13.9355 13.9365ZM-0.000976562 43.9988C0.000265218 19.6971 19.6986 0 43.999 0C68.3007 0 88.0003 19.6971 88.0003 43.9988C88.0003 68.3004 68.3007 88 43.999 88C19.6986 88 0.000265218 68.3004 -0.000976562 43.9988Z" fill="#1E8274"/>
<path fill-rule="evenodd" clip-rule="evenodd" d="M9.92911 39.5745L9.90055 39.8142L8.40669 39.9955L8.35578 39.6751C8.77923 39.531 9.11823 39.3249 9.37031 39.0592C9.62239 38.7897 9.76892 38.4867 9.81114 38.1465C9.84716 37.8571 9.80618 37.6088 9.68821 37.4039C9.57272 37.199 9.41129 37.0835 9.21012 37.0587C9.02386 37.0351 8.86242 37.0934 8.71465 37.2313C8.57061 37.3703 8.42656 37.6038 8.285 37.9316L7.92115 38.7748C7.73737 39.2045 7.52379 39.5149 7.28661 39.7037C7.04694 39.8924 6.77002 39.9694 6.45585 39.9321C6.07463 39.8837 5.76791 39.6751 5.53445 39.3075C5.29851 38.9362 5.21283 38.5016 5.27368 38.0024C5.30969 37.7131 5.3842 37.4672 5.49844 37.2673C5.60896 37.0661 5.77163 36.8674 5.97653 36.6687L5.54811 36.4626L5.57667 36.2254L7.30523 36.1174L7.32634 36.4427C6.84702 36.552 6.45958 36.7532 6.16528 37.0525C5.86725 37.348 5.69837 37.682 5.65491 38.0484C5.61641 38.3526 5.66981 38.6295 5.81385 38.8841C5.95666 39.1349 6.14665 39.2777 6.38011 39.3075C6.60114 39.3348 6.78493 39.2728 6.93518 39.13C7.08171 38.9834 7.22824 38.7425 7.37105 38.3998L7.7175 37.5889C7.89384 37.1667 8.09997 36.8612 8.33343 36.6762C8.56564 36.4912 8.83262 36.4179 9.13686 36.4539C9.47338 36.4961 9.74409 36.6836 9.95271 37.0251C10.1613 37.3629 10.2358 37.764 10.1775 38.2321C10.1179 38.7164 9.93408 39.1026 9.62364 39.3895L9.92911 39.5745Z" fill="#1E8274"/>
<path fill-rule="evenodd" clip-rule="evenodd" d="M9.85921 40.5656L9.77476 42.3674L9.48915 42.3538L9.49536 42.2147C9.50406 42.0446 9.47301 41.9254 9.40471 41.8571C9.33642 41.7875 9.17498 41.7478 8.91918 41.7366L5.87682 41.5926C5.6831 41.5851 5.5465 41.6025 5.47075 41.6497C5.39252 41.6993 5.3503 41.821 5.34037 42.0197L5.33416 42.1588L5.05103 42.1451L5.13671 40.3408L5.41984 40.3557L5.41239 40.501C5.40494 40.6712 5.42977 40.7904 5.4869 40.8549C5.54402 40.922 5.68434 40.9592 5.90413 40.9692L9.01852 41.1145C9.22714 41.1244 9.36746 41.107 9.44197 41.0598C9.51647 41.0102 9.55869 40.8897 9.56739 40.6947L9.5736 40.5495L9.85921 40.5656Z" fill="#1E8274"/>
<path fill-rule="evenodd" clip-rule="evenodd" d="M9.83508 46.3739L9.84253 46.6161L8.27913 47.0954L8.17979 46.785C8.64297 46.5875 8.98198 46.3541 9.20301 46.0871C9.42529 45.8213 9.5296 45.491 9.51842 45.0974C9.50228 44.6106 9.29863 44.2132 8.90499 43.9003C8.51134 43.5874 8.0196 43.4421 7.43099 43.4595C6.82128 43.4793 6.32705 43.6681 5.94955 44.0245C5.56832 44.3809 5.3895 44.808 5.40565 45.3072C5.41186 45.6077 5.50996 45.9107 5.68877 46.2187C5.87132 46.5279 6.11843 46.7924 6.43757 47.0209L6.26496 47.2966C5.86014 47.0383 5.54721 46.7303 5.3299 46.3615C5.11135 45.9964 4.9971 45.5953 4.98468 45.1619C4.96233 44.4951 5.17964 43.9276 5.63289 43.4595C6.08366 42.9913 6.65364 42.7454 7.34034 42.7256C7.78117 42.7144 8.19469 42.8063 8.58088 43.0075C8.9708 43.2099 9.28125 43.493 9.51097 43.8556C9.74195 44.217 9.8624 44.6094 9.8773 45.0316C9.88972 45.4761 9.77051 45.8896 9.51842 46.2733L9.83508 46.3739Z" fill="#1E8274"/>
<path fill-rule="evenodd" clip-rule="evenodd" d="M9.8513 47.2022L10.1183 49.0065L9.83515 49.0474L9.81777 48.9257C9.78921 48.7271 9.74078 48.6041 9.67496 48.5557C9.61163 48.506 9.47007 48.4986 9.25524 48.5321L7.94889 48.7233L8.30776 51.146L9.57686 50.961C9.7979 50.9275 9.93574 50.8865 9.99783 50.8319C10.0562 50.776 10.0748 50.663 10.0463 50.4842L10.0202 50.2992L10.3008 50.2569L10.5666 52.0414L10.2847 52.0848L10.2598 51.9259C10.2387 51.7719 10.1965 51.6676 10.1357 51.6142C10.0785 51.5633 9.94195 51.5521 9.73333 51.5807L6.54568 52.0538C6.39418 52.0749 6.28987 52.101 6.23399 52.1308C6.17811 52.1593 6.14582 52.2127 6.13837 52.2922C6.13216 52.3704 6.1421 52.5021 6.16818 52.6908L5.88753 52.7318L5.62428 50.9461L5.90492 50.9039L5.92479 51.0355C5.94714 51.1858 5.97322 51.2901 6.00054 51.3472C6.03282 51.4019 6.07877 51.4341 6.14334 51.4416C6.20419 51.449 6.3234 51.4403 6.49352 51.4168L7.94268 51.2019L7.58629 48.778L6.09491 48.9978C5.84531 49.0338 5.71244 49.0847 5.69257 49.1517C5.67395 49.2225 5.68388 49.3902 5.72114 49.6559L5.43925 49.6969L5.17351 47.8889L5.45539 47.8479L5.47278 47.9646C5.5001 48.1546 5.53859 48.2738 5.59075 48.3297C5.64415 48.3868 5.76832 48.398 5.96701 48.3682L9.18943 47.8951C9.37942 47.8665 9.5036 47.8218 9.55451 47.761C9.60667 47.6976 9.61908 47.5896 9.59797 47.4344L9.56693 47.2406L9.8513 47.2022Z" fill="#1E8274"/>
<path fill-rule="evenodd" clip-rule="evenodd" d="M10.5619 52.0062L11.0673 53.7596L10.7953 53.8378L10.763 53.726C10.7072 53.5348 10.6389 53.423 10.5582 53.3858C10.4787 53.346 10.3458 53.356 10.1645 53.4069L8.11681 54.0005C7.7269 54.1135 7.45495 54.2513 7.30593 54.4103C7.15692 54.568 7.0613 54.7642 7.01784 54.9951C6.97314 55.2286 6.98183 55.4509 7.04516 55.6632C7.11221 55.8954 7.23267 56.1028 7.41148 56.2816C7.58658 56.4604 7.77905 56.5784 7.9827 56.6355C8.1876 56.6902 8.4968 56.6591 8.91031 56.5387L10.8711 55.9724C11.0487 55.919 11.1679 55.8544 11.2275 55.7737C11.2908 55.693 11.2958 55.5639 11.2436 55.3863L11.2076 55.2609L11.4808 55.1802L11.9216 56.7026L11.646 56.7808L11.6162 56.6753C11.5677 56.5002 11.4994 56.3921 11.4162 56.3512C11.3343 56.3052 11.2026 56.3114 11.0201 56.3623L8.92646 56.9683C8.35648 57.1347 7.86846 57.0937 7.45991 56.8479C7.05137 56.6045 6.77073 56.2183 6.61799 55.693C6.4876 55.2447 6.50747 54.7977 6.67511 54.3531C6.84275 53.9086 7.20535 53.6081 7.76042 53.4466L9.98818 52.8009C10.1744 52.7463 10.2899 52.6854 10.3384 52.6146C10.3843 52.5439 10.3831 52.4209 10.3346 52.252L10.2847 52.0848L10.5619 52.0062Z" fill="#1E8274"/>
<path fill-rule="evenodd" clip-rule="evenodd" d="M9.97484 58.8276L10.5485 60.1749L12.3553 58.609L9.97484 58.8276ZM12.867 58.2489L13.0843 58.758L9.79851 61.7544C9.67061 61.8724 9.58368 61.9854 9.53526 62.0835C9.49304 62.1841 9.49428 62.2983 9.54767 62.42L9.57872 62.4908L9.3167 62.6013L8.65607 61.0491L8.91561 60.9361C8.9926 61.1112 9.05469 61.2217 9.10312 61.2652C9.1503 61.3124 9.21115 61.3186 9.27697 61.29C9.34154 61.2602 9.44088 61.1882 9.57623 61.0665L10.2903 60.4208L9.61845 58.8437L8.54059 58.9095C8.43131 58.9182 8.3506 58.9294 8.29968 58.953C8.22766 58.9815 8.19041 59.0325 8.18668 59.1032C8.1842 59.1715 8.21897 59.292 8.29348 59.4671L8.03146 59.5788L7.47638 58.275L7.73716 58.1644C7.80794 58.3259 7.88617 58.4302 7.97558 58.4712C8.06375 58.5146 8.22642 58.5283 8.46112 58.5134L12.867 58.2489Z" fill="#1E8274"/>
<path fill-rule="evenodd" clip-rule="evenodd" d="M13.5632 60.5331L14.2847 61.7948L12.2755 65.4232L14.62 64.0821C14.8075 63.9741 14.918 63.8685 14.949 63.7655C14.9801 63.6612 14.954 63.5395 14.872 63.3942L14.8137 63.2911L15.0608 63.1496L15.8481 64.523L15.5997 64.6645L15.555 64.5875C15.4606 64.4224 15.3613 64.3305 15.2557 64.3106C15.1502 64.2883 15.0074 64.3317 14.8236 64.4385L11.4547 66.367L11.251 66.0119L13.6588 61.6383L10.7257 63.3209C10.5246 63.4352 10.4041 63.5395 10.3606 63.6314C10.3184 63.7257 10.3656 63.8959 10.5047 64.1355L10.2576 64.2771L9.45911 62.8838L9.70747 62.7423L9.74845 62.8155C9.85897 63.008 9.96328 63.1123 10.0614 63.1235C10.1607 63.1359 10.3122 63.085 10.5221 62.9633L13.1236 61.4731C13.2776 61.3862 13.3819 61.3179 13.4341 61.267C13.4874 61.2173 13.511 61.159 13.5048 61.0882C13.4949 61.0174 13.4539 60.9168 13.3782 60.7852L13.3161 60.6772L13.5632 60.5331Z" fill="#1E8274"/>
<path fill-rule="evenodd" clip-rule="evenodd" d="M16.0418 69.1109L16.9992 70.2161L18.2373 68.1671L16.0418 69.1109ZM18.6135 67.6667L18.9761 68.0852L16.7769 71.9496C16.6913 72.1036 16.6416 72.2364 16.6304 72.3432C16.6155 72.4538 16.6553 72.5581 16.7422 72.6599L16.7918 72.7133L16.5783 72.9058L15.4706 71.6317L15.6867 71.4417C15.8096 71.5857 15.9027 71.6727 15.9636 71.6975C16.0244 71.7236 16.0816 71.7174 16.1374 71.6689C16.1896 71.6205 16.2616 71.5174 16.351 71.361L16.8341 70.529L15.7065 69.2363L14.7007 69.6324C14.5989 69.6722 14.5268 69.7082 14.4846 69.7454C14.4263 69.7963 14.4064 69.8572 14.4225 69.9218C14.4424 69.9901 14.5144 70.0944 14.6386 70.2384L14.4225 70.4272L13.4937 69.3568L13.7085 69.1692C13.824 69.3009 13.9308 69.3741 14.0276 69.389C14.1245 69.4002 14.2847 69.3654 14.5032 69.2798L18.6135 67.6667Z" fill="#1E8274"/>
<path fill-rule="evenodd" clip-rule="evenodd" d="M22.7356 72.0443L22.9231 72.2095L22.2575 73.563L21.9595 73.4413C22.101 72.9881 22.1445 72.5969 22.0886 72.2704C22.0327 71.9388 21.8663 71.6569 21.5944 71.4173C21.2417 71.1118 20.812 71 20.3029 71.0795C19.7925 71.159 19.3517 71.411 18.9804 71.837C18.7221 72.135 18.5446 72.4628 18.4477 72.8267C18.3508 73.193 18.3508 73.5283 18.4477 73.8424C18.5446 74.1529 18.711 74.4149 18.9494 74.6198C19.081 74.7353 19.2275 74.8235 19.3865 74.8905C19.5442 74.9576 19.7006 74.9923 19.8559 74.9973C20.0099 75.001 20.1315 74.9812 20.2234 74.934C20.3128 74.888 20.4184 74.7949 20.5364 74.6608L20.6866 74.4894C20.8505 74.2969 20.9238 74.1516 20.9052 74.0473C20.8866 73.9405 20.7611 73.7878 20.5264 73.5817L20.7139 73.3681L22.1581 74.6297L21.9706 74.8433L21.8551 74.7415C21.7198 74.6223 21.613 74.5726 21.5348 74.5863C21.4565 74.6037 21.3535 74.6831 21.2268 74.8284L20.1489 76.0628L19.8993 75.8429L20.0372 75.4121C19.4498 75.3438 18.9593 75.1376 18.5619 74.7887C18.0565 74.3478 17.7846 73.8064 17.7436 73.1694C17.7051 72.5299 17.9224 71.94 18.3943 71.4011C18.8451 70.882 19.3977 70.5977 20.057 70.5418C20.7127 70.4859 21.2839 70.6672 21.7695 71.0907C22.1283 71.4036 22.3519 71.7774 22.44 72.2033L22.7356 72.0443Z" fill="#1E8274"/>
<path fill-rule="evenodd" clip-rule="evenodd" d="M24.8636 74.0428L23.9223 75.5516L24.7469 76.0657C25.133 76.3053 25.4509 76.4245 25.6993 76.4146C25.9501 76.4072 26.1612 76.2644 26.3376 75.9837C26.4928 75.7329 26.5363 75.5007 26.4618 75.2871C26.3897 75.0785 26.2035 74.8798 25.8992 74.6898L24.8636 74.0428ZM24.0105 73.0779L26.083 74.3707C27.0963 75.0002 27.3918 75.6559 26.9709 76.3302C26.7598 76.6717 26.4779 76.8592 26.1227 76.9001C25.7676 76.9386 25.3553 76.8182 24.8872 76.5388L25.1393 78.4958C25.1666 78.7045 25.2076 78.8646 25.2622 78.9776C25.3168 79.0906 25.4075 79.1888 25.5341 79.2645L25.6062 79.308L25.4547 79.5514L24.5407 78.9826L24.2638 76.1501L23.7497 75.8285L22.9786 77.0665C22.8631 77.2516 22.8097 77.3807 22.8171 77.4602C22.8258 77.5384 22.919 77.634 23.0953 77.7433L23.1996 77.8116L23.0506 78.0525L21.507 77.0889L21.6585 76.8492L21.7989 76.9362C21.9479 77.0305 22.0634 77.0666 22.1441 77.043C22.2248 77.0256 22.339 76.8952 22.4868 76.6592L24.1284 74.0279C24.2166 73.8851 24.2563 73.7709 24.2464 73.6839C24.2352 73.5958 24.162 73.5076 24.0229 73.4219L23.8577 73.3176L24.0105 73.0779Z" fill="#1E8274"/>
<path fill-rule="evenodd" clip-rule="evenodd" d="M27.8426 75.3854L29.4619 76.1851L29.334 76.4371L29.2098 76.3763C29.0571 76.3018 28.9366 76.2819 28.846 76.3179C28.7553 76.3527 28.6535 76.4856 28.5405 76.7128L27.1944 79.4472C27.1075 79.6211 27.0715 79.7527 27.0839 79.8409C27.0938 79.9303 27.1932 80.0184 27.3707 80.1066L27.4949 80.1674L27.3682 80.4245L25.7502 79.6248L25.8756 79.369L26.0073 79.4348C26.1612 79.5105 26.278 79.5366 26.3624 79.5068C26.4444 79.4807 26.5338 79.369 26.6319 79.1703L28.0115 76.3726C28.1046 76.1875 28.1431 76.0497 28.127 75.9615C28.1146 75.8771 28.0214 75.7927 27.8463 75.7032L27.7147 75.6387L27.8426 75.3854Z" fill="#1E8274"/>
<path fill-rule="evenodd" clip-rule="evenodd" d="M33.4452 77.7392L33.6737 77.8237L33.5371 79.4541L33.213 79.4293C33.1993 78.9276 33.1087 78.5228 32.9448 78.221C32.7796 77.918 32.5126 77.6958 32.1426 77.5604C31.6856 77.394 31.2398 77.4362 30.8039 77.6858C30.3668 77.9354 30.0489 78.3378 29.849 78.8916C29.6392 79.4641 29.6292 79.9918 29.8192 80.4773C30.0092 80.9592 30.3408 81.287 30.8089 81.4571C31.0908 81.5614 31.4099 81.5875 31.7626 81.5341C32.114 81.4795 32.4555 81.3453 32.7821 81.1355L32.9746 81.3987C32.5871 81.6806 32.1823 81.8532 31.7614 81.9203C31.3404 81.9836 30.9269 81.9426 30.5183 81.7961C29.8912 81.5664 29.4454 81.1541 29.1772 80.5593C28.914 79.9657 28.8978 79.3473 29.1325 78.7016C29.2815 78.2906 29.5237 77.9404 29.854 77.656C30.1868 77.3679 30.563 77.1879 30.9852 77.1059C31.4087 77.0289 31.816 77.06 32.2146 77.2028C32.6331 77.3555 32.9721 77.62 33.2341 77.9963L33.4452 77.7392Z" fill="#1E8274"/>
<path fill-rule="evenodd" clip-rule="evenodd" d="M34.1058 77.989L35.889 78.3913L35.8257 78.6682L35.709 78.6446C35.5165 78.5999 35.3836 78.6049 35.3128 78.6583C35.2408 78.7092 35.1849 78.8309 35.1427 79.0147L34.6733 81.0934C34.5839 81.4896 34.5727 81.7938 34.641 81.9987C34.7056 82.2073 34.831 82.3886 35.0123 82.5364C35.1961 82.6866 35.3948 82.786 35.6109 82.8369C35.8456 82.8878 36.0852 82.8803 36.3286 82.8108C36.5708 82.745 36.7694 82.6357 36.916 82.483C37.0637 82.3302 37.1842 82.0459 37.2811 81.6249L37.7293 79.6356C37.7703 79.4543 37.7691 79.3177 37.7293 79.2258C37.6896 79.1314 37.5766 79.0656 37.3965 79.0246L37.2686 78.9973L37.3307 78.7191L38.8755 79.0681L38.8134 79.3425L38.7041 79.3189C38.5278 79.2817 38.4011 79.2866 38.3229 79.3351C38.2447 79.3885 38.1851 79.5077 38.1429 79.6915L37.6623 81.8211C37.5331 82.3961 37.2624 82.8058 36.8489 83.0455C36.4379 83.2827 35.9648 83.3435 35.4333 83.2231C34.9751 83.1213 34.5963 82.8866 34.2871 82.5264C33.9779 82.1638 33.8885 81.6994 34.0164 81.1369L34.5268 78.8744C34.569 78.6869 34.5715 78.554 34.5318 78.4782C34.492 78.4037 34.3852 78.3454 34.2139 78.3069L34.045 78.2696L34.1058 77.989Z" fill="#1E8274"/>
<path fill-rule="evenodd" clip-rule="evenodd" d="M39.0975 79.0634L40.9179 79.272L40.8844 79.5551L40.7205 79.5365C40.569 79.5166 40.456 79.5291 40.3815 79.5626C40.3095 79.5998 40.261 79.7079 40.2399 79.8855L39.8624 83.1625C39.8413 83.3463 39.8463 83.4581 39.8761 83.4941C39.9071 83.535 40.0139 83.5649 40.1989 83.586L40.4461 83.6158C40.8645 83.6617 41.2048 83.6058 41.468 83.4481C41.7313 83.2879 41.9846 83.0023 42.228 82.59L42.5136 82.7279L41.8195 84.1348L38.5561 83.7611L38.5896 83.4779L38.7336 83.4916C38.9137 83.5139 39.0354 83.5015 39.1012 83.4556C39.1683 83.4096 39.2117 83.2855 39.2353 83.0892L39.6016 79.8954C39.6252 79.7042 39.6153 79.5725 39.5756 79.5018C39.5333 79.4322 39.4129 79.385 39.2105 79.3614L39.0652 79.344L39.0975 79.0634Z" fill="#1E8274"/>
<path fill-rule="evenodd" clip-rule="evenodd" d="M43.059 79.3302L43.2925 79.3376L43.3248 79.4991L46.0356 79.5848L46.0704 79.427L46.32 79.4345L46.7682 80.839L46.459 80.9408C46.3324 80.572 46.1871 80.3124 46.0232 80.1498C45.858 79.9896 45.6146 79.9051 45.2905 79.8952C45.1527 79.8902 45.0658 79.9027 45.0322 79.9312C44.9987 79.961 44.9801 80.0455 44.9763 80.1883L44.8708 83.4678C44.8621 83.7062 44.9018 83.8577 44.9925 83.9136C45.0794 83.972 45.2346 84.0067 45.4582 84.0129L45.447 84.2973L43.6228 84.2389L43.6315 83.9533C43.8165 83.9608 43.9506 83.9521 44.0326 83.9285C44.1145 83.9074 44.1679 83.8615 44.1915 83.8006C44.2189 83.7348 44.2325 83.6255 44.2375 83.4753L44.3455 80.1237C44.3492 80.0094 44.3368 79.9387 44.3145 79.9101C44.2896 79.8778 44.2226 79.8617 44.1108 79.8567C43.7371 79.8443 43.4676 79.9188 43.3049 80.0715C43.1422 80.2255 42.9845 80.4776 42.8293 80.8241L42.5288 80.7024L43.059 79.3302Z" fill="#1E8274"/>
<path fill-rule="evenodd" clip-rule="evenodd" d="M46.7829 79.6284L48.5772 79.2919L48.6294 79.5701L48.5139 79.5949C48.3177 79.6309 48.1997 79.6856 48.1538 79.7613C48.1091 79.8396 48.1029 79.9675 48.1401 80.1574L48.5325 82.2511C48.6083 82.6509 48.7176 82.9341 48.8604 83.0992C49.0044 83.2619 49.1882 83.3786 49.4167 83.4432C49.6439 83.509 49.8625 83.5239 50.0835 83.4829C50.3207 83.4357 50.5355 83.3339 50.733 83.1737C50.9292 83.0173 51.0633 82.8372 51.1415 82.6385C51.216 82.4398 51.2148 82.1319 51.1353 81.7097L50.759 79.7017C50.7268 79.5192 50.6721 79.3962 50.5976 79.3255C50.5243 79.2572 50.3952 79.241 50.2139 79.272L50.0835 79.2981L50.0314 79.02L51.5873 78.7257L51.6395 79.0076L51.5314 79.0299C51.3551 79.0597 51.2396 79.1143 51.1875 79.1938C51.1353 79.2708 51.1279 79.4024 51.1601 79.59L51.565 81.7308C51.673 82.3169 51.5873 82.8012 51.3029 83.1787C51.0186 83.5636 50.6088 83.8058 50.0699 83.9064C49.6116 83.9921 49.1696 83.9312 48.7436 83.7214C48.3177 83.5103 48.0507 83.1228 47.9464 82.5528L47.5192 80.2742C47.4807 80.0817 47.4298 79.9612 47.3653 79.9078C47.2982 79.8545 47.179 79.8433 47.0064 79.8768L46.835 79.9078L46.7829 79.6284Z" fill="#1E8274"/>
<path fill-rule="evenodd" clip-rule="evenodd" d="M53.079 78.5902L53.6465 80.2753L54.5679 79.9624C54.9988 79.8196 55.2881 79.647 55.4421 79.4471C55.5948 79.2496 55.6197 78.9975 55.5129 78.6846C55.4198 78.4052 55.267 78.2264 55.0584 78.1457C54.8473 78.0687 54.5729 78.0873 54.2363 78.2016L53.079 78.5902ZM51.7888 78.6362L54.1047 77.8551C55.236 77.4726 55.9301 77.6614 56.1847 78.4139C56.3126 78.7914 56.2778 79.1292 56.0841 79.4297C55.8904 79.7277 55.5365 79.9723 55.0199 80.1549L56.6938 81.2029C56.8726 81.3122 57.0241 81.3842 57.1458 81.4128C57.2675 81.4426 57.3992 81.4352 57.5395 81.3842L57.6177 81.3594L57.7096 81.6289L56.6901 81.9741L54.3233 80.3896L53.7508 80.5833L54.2165 81.9666C54.2873 82.1728 54.3543 82.2957 54.4201 82.3417C54.4872 82.3851 54.6188 82.3715 54.815 82.3057L54.9342 82.2647L55.0249 82.5341L53.3025 83.1178L53.2106 82.8483L53.3683 82.7949C53.5347 82.7378 53.6353 82.672 53.6738 82.5987C53.7086 82.5217 53.6813 82.3504 53.5919 82.0871L52.5984 79.1478C52.545 78.9901 52.4829 78.8883 52.4072 78.8398C52.3314 78.7914 52.2197 78.7939 52.0657 78.8448L51.8807 78.9057L51.7888 78.6362Z" fill="#1E8274"/>
<path fill-rule="evenodd" clip-rule="evenodd" d="M58.1979 79.0949L59.5254 78.479L57.8986 76.7256L58.1979 79.0949ZM57.5199 76.2264L58.0228 75.9905L61.1285 79.1719C61.2539 79.2986 61.3669 79.3818 61.4675 79.4252C61.5706 79.4662 61.6811 79.4588 61.8016 79.4029L61.8711 79.3718L61.9928 79.6289L60.4617 80.3417L60.3425 80.0821C60.5138 80.0014 60.6219 79.9369 60.6641 79.8872C60.7075 79.8363 60.7125 79.7791 60.6802 79.7108C60.6529 79.6463 60.5734 79.5507 60.448 79.4228L59.7775 78.7286L58.2252 79.4538L58.3271 80.5304C58.337 80.6372 58.3556 80.7179 58.378 80.7688C58.4103 80.8384 58.4612 80.8744 58.5332 80.8769C58.6015 80.8769 58.7219 80.8359 58.8945 80.7589L59.015 81.016L57.731 81.6108L57.6093 81.355C57.7695 81.2805 57.8688 81.1985 57.9086 81.1078C57.9496 81.0184 57.9582 80.8558 57.9346 80.6211L57.5199 76.2264Z" fill="#1E8274"/>
<path fill-rule="evenodd" clip-rule="evenodd" d="M59.8579 75.3829L61.4338 74.4428L61.5778 74.6875L61.4362 74.7756C61.3046 74.8514 61.2214 74.9284 61.1817 75.0004C61.1457 75.0736 61.1742 75.1904 61.2661 75.3431L62.9524 78.1781C63.0468 78.3383 63.1189 78.4227 63.1648 78.4364C63.2132 78.45 63.3163 78.4091 63.4765 78.3085L63.6913 78.1843C64.0527 77.967 64.2898 77.7162 64.4041 77.433C64.5158 77.1462 64.5432 76.7662 64.486 76.2881L64.7965 76.226L65.0982 77.7658L62.2769 79.4447L62.1316 79.2001L62.257 79.1268C62.4123 79.0337 62.5029 78.9505 62.524 78.8747C62.5501 78.7965 62.5116 78.6723 62.4098 78.5034L60.7632 75.7393C60.6651 75.5704 60.5794 75.4735 60.5037 75.4437C60.4291 75.4127 60.305 75.4474 60.1286 75.5517L60.0032 75.6275L59.8579 75.3829Z" fill="#1E8274"/>
<path fill-rule="evenodd" clip-rule="evenodd" d="M65.6303 71.6394L66.9739 70.4014L67.1664 70.6075L67.0794 70.6907C66.9329 70.8273 66.8609 70.9366 66.8646 71.0247C66.8683 71.1142 66.9329 71.2272 67.062 71.3675L68.5075 72.9358C68.7831 73.2326 69.0253 73.4152 69.2339 73.4773C69.4425 73.5394 69.6623 73.5393 69.8896 73.476C70.1156 73.4102 70.3105 73.3009 70.4745 73.1532C70.6508 72.9868 70.7787 72.7856 70.8619 72.5484C70.9438 72.3087 70.9637 72.0827 70.9227 71.8791C70.883 71.6705 70.7166 71.4072 70.4248 71.0918L69.0402 69.593C68.916 69.4527 68.803 69.3744 68.7037 69.3595C68.6043 69.3372 68.4851 69.3906 68.3485 69.5185L68.2517 69.6066L68.0592 69.398L69.224 68.3264L69.4165 68.535L69.3345 68.6107C69.2029 68.7312 69.1346 68.8392 69.1321 68.9336C69.1309 69.0267 69.1942 69.1422 69.3233 69.2825L70.801 70.8857C71.2034 71.3203 71.3859 71.7773 71.3474 72.2516C71.3114 72.7272 71.0891 73.1507 70.6905 73.5195C70.3465 73.8349 69.938 74.0187 69.4674 74.0671C68.9955 74.1143 68.5621 73.9268 68.171 73.5021L66.5976 71.7959C66.466 71.6543 66.358 71.5761 66.2735 71.5686C66.1878 71.5575 66.081 71.6133 65.9531 71.7301L65.824 71.8493L65.6303 71.6394Z" fill="#1E8274"/>
<path fill-rule="evenodd" clip-rule="evenodd" d="M69.1567 68.3808L70.0781 67.2595L74.1859 67.8456L72.096 66.132C71.9284 65.9929 71.7906 65.9296 71.6825 65.937C71.5745 65.9432 71.4689 66.0115 71.3621 66.1419L71.2889 66.2326L71.0678 66.0525L72.0712 64.8281L72.291 65.0069L72.2351 65.0789C72.1134 65.2255 72.0637 65.3497 72.0811 65.4552C72.101 65.5595 72.1916 65.6825 72.3556 65.8153L75.3582 68.2765L75.0974 68.5932L70.1551 67.899L72.7703 70.0411C72.9491 70.1889 73.0907 70.2671 73.1925 70.2708C73.2956 70.2758 73.4334 70.1715 73.6098 69.9592L73.8308 70.1404L72.8125 71.3797L72.594 71.2009L72.6474 71.1351C72.7865 70.9638 72.8461 70.8321 72.8237 70.7328C72.8001 70.6347 72.6971 70.5142 72.5095 70.3578L70.1911 68.4554C70.0533 68.3461 69.954 68.2728 69.8881 68.2393C69.8223 68.207 69.7578 68.207 69.6957 68.2393C69.6336 68.2728 69.5529 68.3486 69.456 68.4665L69.3778 68.5621L69.1567 68.3808Z" fill="#1E8274"/>
<path fill-rule="evenodd" clip-rule="evenodd" d="M72.0393 64.7494L73.0377 63.2444L73.2736 63.4021L73.1991 63.5175C73.1035 63.6591 73.0687 63.7796 73.0923 63.8715C73.1159 63.9658 73.2339 64.0813 73.445 64.2216L75.9881 65.9055C76.1483 66.0148 76.275 66.0694 76.3656 66.0669C76.455 66.0632 76.5556 65.9812 76.6649 65.8136L76.7419 65.6993L76.9791 65.8571L75.9819 67.3596L75.7435 67.2044L75.8255 67.0815C75.9198 66.9387 75.9596 66.8244 75.9447 66.74C75.9285 66.6555 75.8267 66.5487 75.6417 66.427L73.0439 64.7059C72.8688 64.5917 72.7384 64.5346 72.6515 64.537C72.5633 64.5408 72.4652 64.6227 72.3572 64.7842L72.2765 64.9059L72.0393 64.7494Z" fill="#1E8274"/>
<path fill-rule="evenodd" clip-rule="evenodd" d="M73.2034 63.1259L73.9957 61.586L74.2478 61.7177L74.1844 61.8419C74.1211 61.9648 74.0901 62.0554 74.0913 62.1138C74.0926 62.1722 74.1223 62.2156 74.1782 62.2454C74.2366 62.2765 74.326 62.2976 74.4502 62.3137L78.0054 62.7334L75.605 60.0736C75.5293 59.9841 75.466 59.9233 75.4063 59.8935C75.3467 59.86 75.2896 59.8625 75.2375 59.896C75.1866 59.9308 75.1332 60.0015 75.0748 60.1145L75.0053 60.2499L74.7519 60.1195L75.4225 58.8169L75.6771 58.9448C75.5988 59.0988 75.569 59.2205 75.5889 59.3148C75.6088 59.4092 75.682 59.5284 75.8099 59.6712L78.6958 62.9719L78.476 63.3978L74.1248 62.9433C73.9299 62.9259 73.7908 62.9371 73.7039 62.9719C73.617 63.0104 73.5337 63.1023 73.4568 63.2562L73.2034 63.1259Z" fill="#1E8274"/>
<path fill-rule="evenodd" clip-rule="evenodd" d="M75.3984 58.8335L76.5669 55.1678L77.8869 55.123L77.9031 55.4422C77.5243 55.4546 77.23 55.5452 77.0239 55.7042C76.8153 55.8681 76.6327 56.1947 76.4762 56.6852L76.1298 57.7742L77.7838 58.3045L77.9564 57.7606C78.0372 57.5098 78.0359 57.3086 77.9564 57.1608C77.8745 57.0093 77.6994 56.8913 77.4312 56.8069L77.3567 56.7833L77.456 56.4729L79.4342 57.1012L79.3348 57.4129L79.1635 57.3582C78.9288 57.285 78.7437 57.2788 78.6071 57.3433C78.4693 57.4104 78.3563 57.5843 78.2681 57.8612L78.0943 58.4026L79.5621 58.8707C79.7347 58.9254 79.8464 58.939 79.8949 58.9142C79.9445 58.8906 79.9942 58.7937 80.0476 58.6298L80.2624 57.9555C80.4152 57.4812 80.4437 57.0764 80.3531 56.7436C80.2637 56.4108 80.0339 56.0892 79.6676 55.7762L79.8688 55.5142L81.1155 56.4667L79.9048 60.269L79.6316 60.1845L79.6726 60.0591C79.7322 59.8679 79.7384 59.7363 79.6925 59.663C79.6453 59.591 79.5385 59.5264 79.3696 59.473L76.2676 58.4833C76.1447 58.4436 76.0528 58.4274 75.9932 58.4311C75.9336 58.4374 75.879 58.4746 75.8305 58.5442C75.7821 58.6125 75.7274 58.7366 75.6703 58.9192L75.3984 58.8335Z" fill="#1E8274"/>
<path fill-rule="evenodd" clip-rule="evenodd" d="M77.3161 53.4661L79.062 53.7952L79.2433 52.8403C79.3265 52.3945 79.3203 52.0554 79.2222 51.8257C79.1229 51.5947 78.9118 51.4495 78.5889 51.3886C78.2996 51.334 78.0661 51.3787 77.8985 51.524C77.7259 51.668 77.6079 51.9151 77.5421 52.2666L77.3161 53.4661ZM76.7263 54.6123L77.1783 52.2107C77.3956 51.0384 77.8997 50.5231 78.6821 50.6709C79.0745 50.7454 79.3526 50.9403 79.5178 51.2545C79.6854 51.5712 79.7214 52.0008 79.6308 52.5373L81.3643 51.5935C81.5469 51.4904 81.6834 51.3923 81.7679 51.2992C81.8536 51.2098 81.9107 51.0893 81.938 50.9441L81.9504 50.8609L82.2336 50.9142L82.0336 51.971L79.4942 53.2612L79.3837 53.8548L80.8167 54.1255C81.0303 54.164 81.1706 54.1665 81.2439 54.1317C81.3146 54.0957 81.3693 53.974 81.4065 53.7691L81.4301 53.6474L81.7083 53.6983L81.3742 55.4865L81.0936 55.4331L81.1234 55.2704C81.1569 55.0966 81.1495 54.9774 81.1023 54.9103C81.0526 54.8408 80.8912 54.7799 80.618 54.7315L77.5682 54.1565C77.4043 54.1267 77.2838 54.1329 77.2043 54.1739C77.1274 54.2161 77.0727 54.3167 77.0417 54.4744L77.0069 54.6657L76.7263 54.6123Z" fill="#1E8274"/>
<path fill-rule="evenodd" clip-rule="evenodd" d="M77.8093 46.9935L77.8304 46.7514L79.3131 46.513L79.3764 46.8346C78.9579 46.9935 78.6276 47.2121 78.3879 47.4865C78.1458 47.7647 78.0092 48.0751 77.9819 48.4141C77.9558 48.7072 78.0055 48.9531 78.1297 49.1517C78.2526 49.3517 78.4177 49.4622 78.6214 49.4796C78.8052 49.4957 78.9679 49.4311 79.1082 49.2871C79.2485 49.1431 79.3839 48.9059 79.5142 48.5756L79.8446 47.7175C80.0097 47.2804 80.2121 46.9625 80.4443 46.765C80.679 46.5664 80.951 46.4794 81.2639 46.5068C81.6489 46.539 81.963 46.7377 82.2114 47.0978C82.4597 47.458 82.5628 47.8864 82.5193 48.3918C82.4933 48.6811 82.4287 48.9295 82.3232 49.1356C82.2176 49.3405 82.0636 49.5429 81.8674 49.7503L82.302 49.9403L82.2847 50.175L80.5611 50.3476L80.5263 50.0247C80.9994 49.9005 81.3806 49.6807 81.6638 49.3753C81.9494 49.0673 82.1071 48.7271 82.1381 48.3582C82.1654 48.054 82.1021 47.7783 81.9481 47.53C81.7941 47.2829 81.6017 47.1488 81.3645 47.1289C81.1447 47.109 80.9622 47.1761 80.8194 47.3276C80.6766 47.4778 80.5387 47.7249 80.4071 48.0714L80.0929 48.8935C79.9302 49.3231 79.7365 49.6336 79.5105 49.8285C79.2845 50.0235 79.0212 50.1054 78.7145 50.0818C78.3792 50.052 78.0998 49.8732 77.8813 49.5404C77.659 49.2126 77.5709 48.8127 77.6093 48.3409C77.6516 47.8566 77.8217 47.4629 78.1222 47.1661L77.8093 46.9935Z" fill="#1E8274"/>
<path fill-rule="evenodd" clip-rule="evenodd" d="M77.8601 45.5982L77.8725 43.7939H78.1581L78.1557 43.9343C78.1544 44.1044 78.1904 44.2236 78.2625 44.2894C78.3332 44.3552 78.4959 44.3875 78.7505 44.39L81.7978 44.4123C81.9928 44.4123 82.1281 44.3863 82.2014 44.3391C82.2759 44.2857 82.3144 44.1615 82.3169 43.9641L82.3181 43.8237L82.6 43.825L82.5888 45.6293H82.3032L82.3045 45.484C82.3057 45.3114 82.2784 45.1947 82.2175 45.1326C82.1579 45.0693 82.0176 45.0357 81.7941 45.0357L78.676 45.0134C78.4673 45.0134 78.3283 45.0395 78.2562 45.0891C78.1842 45.1376 78.1482 45.2605 78.1445 45.4542V45.602L77.8601 45.5982Z" fill="#1E8274"/>
<path fill-rule="evenodd" clip-rule="evenodd" d="M77.7219 43.2003L77.707 42.9668L77.8647 42.9184L77.6909 40.2113L77.5294 40.1939L77.5133 39.9443L78.8681 39.3619L78.9972 39.6612C78.6458 39.8214 78.3987 39.9915 78.2546 40.1703C78.1106 40.3491 78.051 40.6012 78.0708 40.9253C78.0795 41.0632 78.0994 41.1476 78.1317 41.1774C78.164 41.2084 78.2522 41.2184 78.395 41.2109L81.6658 40.9986C81.9055 40.9824 82.0508 40.929 82.0992 40.8359C82.1501 40.7428 82.1662 40.5851 82.1513 40.3628L82.4382 40.3429L82.5549 42.1671L82.2693 42.187C82.2581 42.0007 82.237 41.8678 82.2072 41.7896C82.1762 41.7089 82.1277 41.6617 82.0607 41.6418C81.9936 41.6244 81.8856 41.617 81.7316 41.6294L78.3875 41.843C78.2757 41.8504 78.2062 41.8678 78.1776 41.8939C78.1491 41.9212 78.1392 41.9895 78.1466 42.1025C78.169 42.4763 78.2658 42.7371 78.4347 42.8836C78.6061 43.0326 78.8718 43.1642 79.2319 43.2847L79.1388 43.5976L77.7219 43.2003Z" fill="#1E8274"/>
<path fill-rule="evenodd" clip-rule="evenodd" d="M77.666 39.5938L77.3755 37.8454L77.6561 37.7994L77.6884 37.9919C77.7182 38.1794 77.779 38.2639 77.8647 38.2502C77.9243 38.2428 78.0088 38.1918 78.1218 38.1024L79.6566 36.9178L77.743 36.2025C77.6275 36.159 77.5468 36.1429 77.5009 36.1516C77.4562 36.1566 77.4301 36.1839 77.4202 36.2298C77.4102 36.277 77.4164 36.3552 77.4338 36.4633L77.4624 36.6347L77.1805 36.6818L76.9433 35.2463L77.2264 35.1967C77.25 35.3581 77.2836 35.4686 77.3295 35.5319C77.3717 35.594 77.4835 35.6623 77.6648 35.7381L79.9782 36.6545L81.1579 36.4583C81.3939 36.4186 81.5255 36.354 81.5541 36.2634C81.5814 36.1764 81.5752 36.015 81.5354 35.7828L81.8173 35.7344L82.1215 37.5573L81.8397 37.6032L81.8161 37.4592C81.7825 37.268 81.7329 37.1525 81.6633 37.109C81.5925 37.0655 81.4584 37.0618 81.2622 37.0954L80.2067 37.2704L78.2199 38.8661C78.0398 39.0213 77.943 39.1331 77.933 39.2076C77.9219 39.2809 77.9256 39.3951 77.9467 39.5466L77.666 39.5938Z" fill="#1E8274"/>
</svg>
